<svg xmlns="http://www.w3.org/2000/svg" xmlns:xlink="http://www.w3.org/1999/xlink" viewBox="0 0 737.53 142.97"><defs><style>.cls-1{fill:#005bbb;}.cls-2,.cls-4{fill:none;}.cls-3{fill:#7ab0e2;}.cls-4{stroke-miterlimit:10;stroke-width:3px;stroke:url(#linear-gradient);}.cls-5{fill:url(#linear-gradient-2);}.cls-6{fill:url(#linear-gradient-3);}.cls-7{fill:url(#linear-gradient-4);}.cls-8{fill:url(#linear-gradient-5);}</style><linearGradient id="linear-gradient" x1="0.38" y1="71.48" x2="143.35" y2="71.48" gradientUnits="userSpaceOnUse"><stop offset="0" stop-color="#0055b4"/><stop offset="1" stop-color="#0054b3" stop-opacity="0"/></linearGradient><linearGradient id="linear-gradient-2" x1="138.67" y1="15.41" x2="139.01" y2="15.41" gradientUnits="userSpaceOnUse"><stop offset="0" stop-color="#005ab9"/><stop offset="1" stop-color="#002b90"/></linearGradient><linearGradient id="linear-gradient-3" x1="3.44" y1="86.06" x2="159.62" y2="27.99" xlink:href="#linear-gradient-2"/><linearGradient id="linear-gradient-4" x1="23.63" y1="140.47" x2="23.64" y2="140.47" gradientUnits="userSpaceOnUse"><stop offset="0" stop-color="#ffe000"/><stop offset="1" stop-color="#ffd800"/></linearGradient><linearGradient id="linear-gradient-5" x1="1.42" y1="111.47" x2="157.17" y2="88.59" gradientUnits="userSpaceOnUse"><stop offset="0" stop-color="#ffe000"/><stop offset="0.9" stop-color="#ffd800"/></linearGradient></defs><g id="Layer_2" data-name="Layer 2"><g id="Layer_1-2" data-name="Layer 1"><path class="cls-1" d="M200.78,86.94l12.4-11.21A24.17,24.17,0,0,0,231,83c4.52,0,7.38-1.57,8.08-4.17l0-.18c.68-2.52-.95-3.91-8.69-5.82-12.17-3-21.18-6.61-17.83-19.13l0-.17c3-11.3,14.17-19.47,28.77-19.47,10.35,0,17.69,2.78,22.87,8.08L252.62,54.08a23.8,23.8,0,0,0-15.43-6c-4.09,0-6.55,1.74-7.14,3.91l0,.18c-.75,2.78,1,4,8.93,5.91,13.18,3,20.67,7.56,17.61,19l0,.17C253.18,89.64,241.37,97,226.59,97,215.82,97,206.47,93.63,200.78,86.94Z"/><path class="cls-1" d="M257.78,82.51l.05-.18c2.61-9.73,11.35-14.77,22.39-14.77A31.54,31.54,0,0,1,291,69.38l.21-.78c1.3-4.87-1-7.65-7.34-7.65a38.31,38.31,0,0,0-13.65,2.61L270,51.91a54.61,54.61,0,0,1,20-3.65c8.43,0,13.63,2,16.37,5.73,2.63,3.48,2.8,8.35,1,15l-7.24,27H283.82l1.3-4.87A23.15,23.15,0,0,1,269.71,97C260.76,97,255.27,91.9,257.78,82.51Zm30.86-3.57.58-2.17a14.74,14.74,0,0,0-6.1-1.22c-4.78,0-8.2,2.35-9.13,5.83l0,.17c-.87,3.22,1.06,5.13,4.45,5.13A10.45,10.45,0,0,0,288.64,78.94Z"/><path class="cls-1" d="M315.46,49h17.38l1.68,27.47L350.92,49h17.13L336.58,96.33h-15Z"/><path class="cls-1" d="M362.91,72.68l0-.17c3.69-13.74,16.42-24.6,30.33-24.6,16.25,0,20.54,11.91,16.84,25.73-.28,1-.61,2.26-1,3.39H377.65c-.07,5.13,3,7.74,8.1,7.74,3.91,0,7.44-1.48,11.71-4.78l7.1,7.56c-6.05,5.74-13.6,9.56-23,9.56C366.79,97.11,359,87.29,362.91,72.68ZM396,68.6c.79-5.22-1.36-8.52-5.88-8.52-4.35,0-8.22,3.39-10.46,8.52Z"/><path class="cls-1" d="M416.32,69.29l9.16-34.16H442.6L433.54,69c-2.35,8.78,1,13,7.75,13s12.28-4,14.56-12.52L465,35.13h17.13l-9,33.73C467.85,88.51,454.33,97.11,437,97.11S411.22,88.33,416.32,69.29Z"/><path class="cls-1" d="M489.73,32.52h16.51l-8.62,32.17,17-15.74h18.69l-21.4,18.86L521.14,96H503l-5.19-16-5.58,5-3,11H472.72Z"/><path class="cls-1" d="M535.57,49h16.52l-2.54,9.48C554,52,559.43,47.82,567.16,48.17L562.5,65.56h-1.39c-8.6,0-14.8,5-17.71,15.82L539.49,96H523Z"/><path class="cls-1" d="M559.27,82.51l0-.18c2.61-9.73,11.35-14.77,22.39-14.77a31.5,31.5,0,0,1,10.81,1.82l.21-.78c1.31-4.87-1-7.65-7.33-7.65a38.37,38.37,0,0,0-13.66,2.61l-.27-11.65a54.65,54.65,0,0,1,20-3.65c8.43,0,13.63,2,16.37,5.73,2.63,3.48,2.81,8.35,1,15l-7.25,27H585.3l1.3-4.87A23.14,23.14,0,0,1,571.2,97C562.24,97,556.75,91.9,559.27,82.51Zm30.86-3.57.58-2.17a14.79,14.79,0,0,0-6.11-1.22c-4.78,0-8.19,2.35-9.12,5.83l-.05.17c-.86,3.22,1.06,5.13,4.45,5.13A10.47,10.47,0,0,0,590.13,78.94Z"/><path class="cls-1" d="M620.85,49h16.52l-12.6,47H608.25Zm4.06-16.43h17.21l-3.26,12.17H621.65Z"/><path class="cls-1" d="M644.41,49h16.52l-1.77,6.61c4.09-3.91,9.44-7.65,16.13-7.65,10,0,14.22,6.61,11.36,17.3L678.4,96H661.89l6.82-25.47c1.38-5.13-.57-7.91-4.48-7.91s-7.7,2.78-9.08,7.91L648.33,96H631.81Z"/><path class="cls-1" d="M689.08,72.68l0-.17c3.68-13.74,16.41-24.6,30.32-24.6,16.26,0,20.54,11.91,16.84,25.73-.28,1-.61,2.26-1,3.39H703.82c-.07,5.13,3,7.74,8.1,7.74,3.91,0,7.44-1.48,11.71-4.78l7.11,7.56c-6.06,5.74-13.61,9.56-23,9.56C693,97.11,685.17,87.29,689.08,72.68Zm33.08-4.08c.79-5.22-1.36-8.52-5.88-8.52-4.35,0-8.21,3.39-10.46,8.52Z"/><path class="cls-2" d="M136.36,66a1.1,1.1,0,0,1,0,.16c1.09.19,2.17.41,3.23.66C138.47,66.55,137.41,66.28,136.36,66Z"/><path class="cls-3" d="M97.27,67.28l-.52-.12v.13l.54.14C97.28,67.38,97.28,67.33,97.27,67.28Z"/><path class="cls-3" d="M98.4,80.31v0l-.34-.11c0,.12,0,.24.07.36l.33.1Z"/><path class="cls-3" d="M120.29,49.47a1.77,1.77,0,0,1,0-.23h-1.55Z"/><path class="cls-3" d="M120,49.51h.26a.06.06,0,0,1,0,0Z"/><path class="cls-3" d="M126.39,49.89l.08,0,.09-.06-1.55,0,1.32.13Z"/><circle class="cls-4" cx="71.87" cy="71.48" r="69.98"/><path class="cls-5" d="M138.67,15.37c.21,0,.34.06.34.09S138.89,15.39,138.67,15.37Z"/><path class="cls-6" d="M166.4,52c.08-.43.16-.85.23-1.28l-.48-.25a72.29,72.29,0,0,0-9-3.92c-.87-.31-1.75-.6-2.63-.88l-.91-.27c-1-.3-2-.58-3.06-.84-1.25-.33-2.5-.62-3.75-.88h0c0-.22.06-.43.1-.65h0c.09-.54.18-1.07.26-1.6.91.16,1.44.27,1.44.27l1-6.56a80.73,80.73,0,0,1,8.65,2.6l.48.2c0-.17.07-.35.11-.52l.16.06c.41-1.85.81-3.7,1.22-5.55l-.16-.06a1.16,1.16,0,0,1,0-.18c0-.11.05-.23.07-.35l-.49-.19a71.43,71.43,0,0,0-7.54-2.4l.06-.21a87.18,87.18,0,0,0-28.5-2.59l-.29-.33c9.25-.63,22.47-.83,23.7.46l1.07.21.09-.62c.25-1.9.48-3.8.72-5.7l-.63-.12c-1.64-.33-6-.91-7.84-1a99.38,99.38,0,0,0-13.37-.17c-1.53.06-3.06.14-4.6.26,0-.34,0-.68,0-1l-.55.1-.78.15c-1.52.24-3,.51-4.57.8-2.74.51-5.48,1.1-8.22,1.75-2.8.48-5.62,1-8.44,1.63q-2.46.53-4.94,1.09a122.4,122.4,0,0,1,20.28-5.62c11.75-2.25,21.37-2.61,23.23-2.39-2.16-.32-14.71-.49-25.12.9-1.77.23-3.49.52-5.08.85l.06-4.4-.62-.4C76.5,18.08,44.81,31.39,14.47,29.26c-.17.22-.35.43-.51.66,2.27.25,4.62.41,7,.45,16.18,1.12,34.44-3.49,41.09-4.31,1.52-.26,3.06-.54,4.56-.81l-.41.13-8.29,2.7c-3.55,1.12-7.8,2.42-12.38,3.64-.15-.25-.68-.15-1.3,0l-.09,0a108.89,108.89,0,0,1-12.08,3A95.58,95.58,0,0,1,9.77,36.23,70.11,70.11,0,0,0,0,72c0,.2,0,.39,0,.59l.52.12,0,.15L0,72.74c0,2,.12,4,.3,5.92C45.82,96.22,95.2,59,140.91,73.42a69,69,0,0,1,16.84,8l.87-4.11-.4-.25c-.39-.25-.79-.49-1.19-.73l.42-2.24-.11,0a1.85,1.85,0,0,1,0-.23l-.47-.22-.74-.33c-.74-.33-1.46-.64-2.17-.92.24-1.23.47-2.46.7-3.69l-.09,0,.12-.62-.44-.2a69.77,69.77,0,0,0-7.5-2.77v0c0-.11.05-.22.07-.33l.48.13c1.13.31,2.1.59,3.09.9s2.19.71,3.54,1.24c.61.24,1.28.51,2,.84l.43.19c0-.18.07-.35.11-.52s0-.25.07-.38a1.51,1.51,0,0,1,.17.1l.87-4.37q3.18,1.57,6.32,3.54l.45.29c.16-.77.33-1.55.5-2.32l.18.1c.35-1.61.69-3.23,1-4.84l-.18-.12c.14-.65.28-1.3.41-2,0-.12.06-.24.08-.36l-.47-.27-.23-.14c.28-1.54.56-3.08.83-4.63ZM86.84,23.48c-2.22.73-4.52,1.5-6.83,2.28l-4.14,1.4s0-.06,0-.09l-.18.06-1.07.34a1.93,1.93,0,0,0,.46-.36c5-1.59,10-3.18,15-4.7ZM125.43,61.2H127v.22l-1.56-.22Zm1.31.26.26,0v0Zm6.45.33-.09.06h0l-1.33-.13c.52,0,1,0,1.56,0Z"/><path class="cls-7" d="M23.63,140.47h0Z"/><path class="cls-8" d="M140.91,73.42C95.2,59,45.82,96.22.32,78.66a69.61,69.61,0,0,0,1,7l.33.11a0,0,0,0,0,0,0c0,.11,0,.21.05.32L1.39,86a70.39,70.39,0,0,0,20.77,37.32l1,.08a94,94,0,0,0,14.76-.56,92.61,92.61,0,0,1-14.07,2,72.3,72.3,0,0,0,7.4,5.73c1.06-.2,1.75-.34,1.91-.33l.15,1,.41-.09.58-.14c3.22-.6,6.47-1.36,9.74-2.24,3.44-.63,6.91-1.39,10.39-2.22l-1.12.43A159.85,159.85,0,0,1,35,132.92a69.87,69.87,0,0,0,10.54,5c24.14-5.26,49.1-16.78,73.49-14.92,1,.08,2,.18,3,.3,0,0-1.06-.23-2.85-.48a78.65,78.65,0,0,0-14.33-.6c-9.27.21-19.92,2.47-25,3.24l-3.47.59.33-.12,6.4-2.31C86,121.59,117,116.79,123,118.94a.93.93,0,0,1,.2.07v.17c1.16,0,2.32.14,3.48.26l.26.06.51.12.4.1,0-.14.28,0c.48-2.2,1-4.4,1.43-6.6,1.53.33,3.22.75,5,1.29l.39.11.69-3.39A.65.65,0,0,0,136,111l.63.13c-.05-.62-.09-1.25-.13-1.87l.14,0,.39.11c.08-.42.15-.84.22-1.26.89.35,2.17.86,3.79,1.6.53.24,1.06.49,1.57.75l.41.2,1.29-5.68-.36-.19-.69-.35c0-.17.07-.34.1-.5a61,61,0,0,0-8.38-3c0-.26.09-.52.14-.78s.05-.25.07-.38h.1l.16,0,1.26.18c0-.24,0-.48,0-.72l-1.14-.19-.26,0,0-.18.29.06c1.62.33,3.25.72,4.86,1.19.16-1.1.32-2.19.47-3.29,3.48,1.13,6.06,2.23,7.88,3l.38.16c.25-1.16.5-2.32.76-3.47l.23.1c.12-.65.24-1.3.35-2,1.11.57,2.23,1.17,3.34,1.81l.41.24q.94-4.2,1.87-8.42l-.41-.25A65.27,65.27,0,0,0,146,83.21a.43.43,0,0,1,0,0l.31.12,1.22.49.43.18.15-.83h0c0-.11,0-.22,0-.33l.27.09.81-4.88a67,67,0,0,1,7.59,3.71l.77.45c.06-.26.11-.51.17-.77A69,69,0,0,0,140.91,73.42ZM14.52,88.85l.07,0,.06-.06h.09l1.21.12Zm5.89.26h.25l-.23,0A.05.05,0,0,0,20.41,89.11Zm.95.26h-.87l-.06-.22q.77.12,1.53.21Zm114.09,8.77c.16-.89.33-1.78.49-2.68l.92.24c-.21.58-.43,1.15-.65,1.72l-.51-.08c0,.24,0,.48,0,.72l.28,0a.61.61,0,0,1-.05.12Zm7.6-20,0-.16c1,.24,2.11.52,3.2.83C145.21,78.57,144.14,78.35,143.05,78.15Z"/></g></g></svg>