<svg xmlns="http://www.w3.org/2000/svg" width="160" height="50" viewBox="0 0 160 50" fill="none"><g clip-path="url(#clip0_211_75)"><path d="M43.2872 14.0647C44.9246 13.8196 46.5794 13.7088 48.2349 13.7334C50.4892 13.7334 52.0933 14.16 53.1764 15.0257C53.7321 15.4754 54.1768 16.047 54.4761 16.6961C54.7754 17.3453 54.9213 18.0547 54.9025 18.7693C54.9386 19.4784 54.8252 20.1872 54.5699 20.8497C54.3146 21.5123 53.923 22.1138 53.4205 22.6154C52.1682 23.7652 50.32 24.3139 48.16 24.3139C47.7405 24.3241 47.321 24.2934 46.9087 24.2185V30.0267H43.2861V14.0647H43.2872ZM46.9077 21.3898C47.3118 21.4677 47.7231 21.4995 48.1333 21.4841C50.082 21.4841 51.282 20.5026 51.282 18.8708C51.282 17.3816 50.2461 16.4954 48.3969 16.4954C47.8974 16.4777 47.3976 16.5186 46.9077 16.6175V21.3898ZM56.2974 12.9888H59.9456V30.0257H56.2974V12.9898V12.9888ZM73.1528 26.2636C73.1528 27.8 73.2 29.0452 73.2472 30.0277H70.08L69.9108 28.3754H69.8359C69.443 28.9855 68.8982 29.4829 68.255 29.8188C67.6118 30.1547 66.8923 30.3176 66.1672 30.2913C63.7641 30.2913 62.0379 28.8021 62.0379 25.1805V18.2882H65.6861V24.6052C65.6861 26.3108 66.2349 27.3129 67.5343 27.3129C67.9317 27.3131 68.3196 27.1911 68.6452 26.9634C68.9709 26.7357 69.2187 26.4134 69.3549 26.04C69.4625 25.7898 69.5128 25.52 69.5036 25.2482V18.2893H73.1528V26.2636V26.2636ZM75.2646 22.0667C75.2646 20.6041 75.2174 19.359 75.1702 18.3231H78.2636L78.4123 19.9067H78.48C78.8556 19.3079 79.3811 18.8175 80.0044 18.484C80.6277 18.1505 81.3272 17.9854 82.0338 18.0052C82.7133 17.9731 83.3863 18.1507 83.9615 18.514C84.5366 18.8772 84.9862 19.4086 85.2492 20.0359H85.2964C85.7017 19.4525 86.2256 18.9611 86.8338 18.5939C87.5156 18.2107 88.2856 18.0124 89.0677 18.0185C91.322 18.0185 93.0266 19.6021 93.0266 23.1293V30.0257H89.4738V23.6421C89.4738 21.9364 88.9251 20.9344 87.7477 20.9344C87.3656 20.94 86.995 21.0661 86.6888 21.2947C86.3825 21.5232 86.1562 21.8425 86.042 22.2072C85.9649 22.5128 85.9236 22.8264 85.9189 23.1416V30.0257H82.3723V23.4205C82.3723 21.958 81.8451 20.9488 80.6666 20.9488C80.2841 20.9637 79.9154 21.0957 79.6103 21.327C79.3052 21.5583 79.0786 21.8778 78.961 22.2421C78.8527 22.5437 78.8043 22.8635 78.8184 23.1836V30.0206H75.2646V22.0667V22.0667ZM95.3825 30.0267V22.0667C95.3825 20.6103 95.3487 19.4062 95.2882 18.4452H97.1364L97.2307 20.7467H97.3046C97.5349 20.0174 97.9782 19.3737 98.5774 18.8985C99.1372 18.4545 99.8322 18.2156 100.547 18.2216C100.67 18.2216 100.866 18.2216 101.123 18.2688V20.2995C100.884 20.26 100.641 20.2442 100.399 20.2523C100.054 20.244 99.7118 20.3057 99.3918 20.4337C99.0718 20.5617 98.7811 20.7533 98.5374 20.997C98.0181 21.5263 97.6793 22.2062 97.5692 22.9395C97.5179 23.2647 97.4923 23.5929 97.4943 23.9211V30.1149L95.3825 30.0267V30.0267ZM107.1 18.1672C107.857 18.1361 108.611 18.2681 109.312 18.5543C110.013 18.8404 110.644 19.274 111.162 19.8257C112.208 20.9963 112.757 22.5288 112.691 24.0975C112.691 26.0913 112.116 27.6195 110.965 28.68C109.868 29.7147 108.412 30.2825 106.904 30.2636C106.162 30.2834 105.425 30.1472 104.739 29.8638C104.054 29.5804 103.435 29.1562 102.924 28.6185C102.386 28.0375 101.969 27.3553 101.697 26.6115C101.424 25.8678 101.303 25.0773 101.339 24.2862C101.299 23.4682 101.424 22.6504 101.706 21.8817C101.989 21.113 102.424 20.4092 102.985 19.8123C103.521 19.27 104.163 18.844 104.871 18.5609C105.579 18.2779 106.338 18.1439 107.1 18.1672V18.1672ZM109.658 21.1252C109.384 20.688 108.998 20.332 108.539 20.094C108.081 19.856 107.568 19.7446 107.052 19.7713C106.533 19.7482 106.016 19.861 105.553 20.0984C105.09 20.3357 104.697 20.6896 104.412 21.1252C103.791 22.0601 103.472 23.1638 103.499 24.2862C103.472 25.4192 103.827 26.5284 104.508 27.4349C104.794 27.8357 105.173 28.1608 105.613 28.3823C106.053 28.6039 106.54 28.7152 107.033 28.7067C107.524 28.7098 108.009 28.5953 108.447 28.3728C108.885 28.1503 109.263 27.8263 109.551 27.4277C110.244 26.4975 110.6 25.3586 110.559 24.199C110.566 23.1083 110.253 22.0394 109.658 21.1252V21.1252ZM122.467 28.0359L122.826 29.6205C121.777 30.0909 120.637 30.3221 119.488 30.2975C118.713 30.3326 117.938 30.2058 117.214 29.925C116.49 29.6442 115.833 29.2157 115.284 28.6667C114.747 28.0919 114.33 27.4155 114.058 26.6774C113.786 25.9392 113.665 25.1541 113.7 24.3682C113.736 23.3036 114.035 22.2646 114.573 21.345C115.111 20.4254 115.869 19.6544 116.779 19.1016C117.69 18.549 118.724 18.2323 119.788 18.1804C120.852 18.1285 121.913 18.3429 122.873 18.8041L122.392 20.4082C121.631 20.0299 120.791 19.8416 119.942 19.8595C119.377 19.8313 118.814 19.9298 118.293 20.1477C117.771 20.3657 117.305 20.6975 116.929 21.119C116.191 21.9927 115.802 23.109 115.839 24.2523C115.809 24.8295 115.894 25.4067 116.09 25.9506C116.285 26.4945 116.586 26.9942 116.976 27.4205C117.35 27.8085 117.801 28.1138 118.3 28.3167C118.799 28.5197 119.335 28.6159 119.874 28.599C120.768 28.5949 121.651 28.4034 122.467 28.037V28.0359ZM126.569 12.9816V23.7385H126.616C126.934 23.2913 127.293 22.8513 127.625 22.3847L131.056 18.3775H133.615L129.148 23.157L134.258 29.9929H131.666L127.686 24.4288L126.603 25.6267V29.9929H124.477V12.9816H126.569V12.9816ZM144.264 24.6052H136.099C136.063 25.1629 136.146 25.722 136.344 26.2448C136.541 26.7677 136.848 27.2424 137.244 27.637C138.028 28.3233 139.046 28.6821 140.087 28.639C141.189 28.6629 142.284 28.4579 143.303 28.037L143.688 29.5467C142.459 30.0699 141.132 30.3238 139.796 30.2913C139.031 30.3268 138.266 30.2024 137.552 29.926C136.837 29.6496 136.188 29.2274 135.646 28.6862C134.588 27.5199 134.036 25.982 134.11 24.4093C134.051 22.791 134.58 21.2061 135.599 19.9477C136.078 19.3673 136.685 18.9049 137.372 18.5962C138.058 18.2874 138.807 18.1407 139.559 18.1672C140.373 18.1481 141.178 18.3344 141.9 18.7088C142.524 19.0281 143.045 19.516 143.404 20.117C144.034 21.1751 144.364 22.385 144.358 23.6164C144.357 23.9482 144.325 24.2792 144.264 24.6052V24.6052ZM136.14 23.0882H142.307C142.321 22.2594 142.085 21.4455 141.63 20.7529C141.379 20.3893 141.037 20.0987 140.637 19.9107C140.238 19.7228 139.796 19.6442 139.356 19.6831C138.922 19.6592 138.488 19.7404 138.092 19.9196C137.696 20.0989 137.349 20.371 137.081 20.7129C136.543 21.3977 136.213 22.2218 136.127 23.0882H136.14ZM146.612 16.2513L148.677 15.6216V18.4113H151.703V20.0349H148.677V26.3036C148.677 27.8062 149.205 28.558 150.268 28.558C150.678 28.5682 151.088 28.52 151.486 28.4154L151.588 30.0267C150.983 30.2251 150.349 30.3212 149.713 30.3108C149.291 30.336 148.869 30.2699 148.475 30.117C148.082 29.964 147.726 29.7279 147.432 29.4247C146.89 28.8154 146.612 27.8 146.612 26.3785V20.0359H144.811V18.4093H146.612V16.2513V16.2513ZM155.067 9.00209C155.488 8.99366 155.906 9.07015 156.297 9.22698C156.688 9.38381 157.043 9.61778 157.342 9.91491C157.644 10.2033 157.883 10.5514 158.044 10.9372C158.205 11.323 158.284 11.738 158.276 12.1559C158.278 12.5771 158.194 12.9942 158.027 13.3809C157.861 13.7677 157.616 14.1157 157.308 14.4031C156.688 14.9936 155.865 15.323 155.01 15.323C154.154 15.323 153.331 14.9936 152.712 14.4031C152.413 14.1106 152.176 13.7616 152.014 13.3765C151.852 12.9914 151.769 12.5778 151.768 12.16C151.768 11.742 151.851 11.3281 152.014 10.9428C152.176 10.5574 152.413 10.2083 152.712 9.91593C153.023 9.61325 153.392 9.37634 153.796 9.21933C154.201 9.06232 154.633 8.98844 155.067 9.00209V9.00209ZM155.027 9.63798C154.704 9.63096 154.383 9.69325 154.087 9.82063C153.79 9.94802 153.524 10.1376 153.307 10.3764C152.856 10.8574 152.612 11.4968 152.63 12.1559C152.618 12.484 152.671 12.8111 152.788 13.1181C152.904 13.4251 153.08 13.7058 153.307 13.9436C153.532 14.1809 153.804 14.3685 154.106 14.4943C154.408 14.62 154.733 14.6812 155.06 14.6739C155.382 14.6862 155.703 14.627 155.999 14.5008C156.295 14.3745 156.559 14.1842 156.773 13.9436C157.225 13.4647 157.468 12.8267 157.45 12.1693C157.471 11.5034 157.228 10.8563 156.773 10.3693C156.551 10.1301 156.28 9.94123 155.979 9.81512C155.678 9.68901 155.353 9.62862 155.027 9.63798V9.63798ZM154.546 12.5416V13.7877H153.814V10.6329C154.216 10.5775 154.622 10.5457 155.027 10.5385C155.402 10.5088 155.778 10.5959 156.103 10.7888C156.209 10.8654 156.295 10.9675 156.351 11.0858C156.408 11.204 156.434 11.3347 156.428 11.4657C156.428 11.8308 156.211 12.0749 155.751 12.2175V12.2585C155.902 12.3279 156.033 12.4355 156.13 12.5707C156.228 12.7059 156.288 12.8641 156.306 13.0298C156.347 13.2934 156.425 13.5508 156.536 13.7939H155.771C155.654 13.5514 155.57 13.2944 155.521 13.0298C155.467 12.7047 155.25 12.5488 154.844 12.5488L154.546 12.5416V12.5416ZM154.546 11.1139V12.0205H154.891C155.378 12.0205 155.623 11.8647 155.623 11.56C155.623 11.2554 155.399 11.08 154.946 11.08C154.83 11.0817 154.714 11.0931 154.6 11.1139H154.546ZM56.48 42.1375V35.0636H57.4215V42.1375H56.48ZM59.0861 42.1375V37.0134H59.8718V37.7436C60.0447 37.4712 60.2867 37.2494 60.5731 37.1008C60.8595 36.9521 61.1802 36.882 61.5025 36.8975C61.7949 36.8954 62.0851 36.9508 62.3559 37.0606C62.5846 37.1529 62.7866 37.3047 62.9384 37.5006C63.0769 37.7026 63.1672 37.9344 63.202 38.1775C63.2461 38.4575 63.2636 38.7406 63.2564 39.0236V42.1713H62.3825V39.0575C62.395 38.7869 62.3607 38.5163 62.281 38.2575C62.2128 38.081 62.0861 37.9332 61.922 37.839C61.7442 37.7166 61.5357 37.6462 61.32 37.6359C60.9669 37.6285 60.6238 37.7541 60.359 37.9877C60.2003 38.1724 60.0821 38.3883 60.0122 38.6215C59.9422 38.8548 59.922 39.1001 59.9528 39.3416V42.1375H59.0861V42.1375ZM64.7118 42.1375V37.0123H65.4964V37.7436C65.6699 37.4717 65.9119 37.2503 66.1982 37.1017C66.4845 36.9532 66.8049 36.8827 67.1272 36.8975C67.4205 36.8944 67.7107 36.9488 67.9805 37.0606C68.2113 37.1508 68.4133 37.3026 68.5631 37.4995C68.7005 37.7047 68.7928 37.9344 68.8338 38.1764C68.8748 38.4575 68.8902 38.7406 68.881 39.0236V42.1713H68.0154V39.0564C68.0272 38.7865 67.9925 38.5166 67.9128 38.2585C67.8424 38.0809 67.7136 37.9326 67.5477 37.838C67.3648 37.7325 67.1567 37.6789 66.9456 37.6831C66.5921 37.6755 66.2487 37.801 65.9836 38.0349C65.8276 38.2211 65.7117 38.4373 65.6431 38.6703C65.5744 38.9032 65.5545 39.1478 65.5846 39.3888V42.1847L64.7118 42.1375V42.1375ZM70.0184 39.5785C69.9865 39.1897 70.041 38.7987 70.1779 38.4335C70.3147 38.0682 70.5307 37.7377 70.8102 37.4657C71.259 37.0842 71.8328 36.8818 72.4215 36.8975C72.7416 36.8842 73.0609 36.9375 73.3592 37.054C73.6576 37.1705 73.9285 37.3477 74.1548 37.5744C74.3885 37.8333 74.5687 38.1358 74.6849 38.4647C74.801 38.7935 74.851 39.1421 74.8318 39.4903C74.8557 40.0254 74.7538 40.5586 74.5343 41.0472C74.3406 41.4211 74.0385 41.7278 73.6677 41.9272C73.2882 42.1385 72.8615 42.2472 72.4287 42.2452C72.1076 42.2595 71.7871 42.2067 71.4876 42.0902C71.188 41.9736 70.9161 41.7958 70.6892 41.5682C70.2131 41.0188 69.9722 40.3041 70.0184 39.5785V39.5785ZM70.9118 39.5785C70.8728 40.1057 71.0246 40.6288 71.3384 41.0544C71.472 41.2103 71.6383 41.3348 71.8255 41.419C72.0128 41.5032 72.2163 41.5451 72.4215 41.5416C72.6268 41.5462 72.8304 41.5041 73.0169 41.4185C73.2035 41.3328 73.3682 41.2059 73.4984 41.0472C73.8215 40.6164 73.9754 40.0811 73.9313 39.5447C73.9694 39.029 73.8152 38.5175 73.4984 38.1088C73.3661 37.9538 73.2006 37.8308 73.0141 37.7487C72.8277 37.6667 72.6251 37.6278 72.4215 37.6349C72.2162 37.6315 72.0126 37.6735 71.8254 37.7579C71.6382 37.8423 71.4719 37.967 71.3384 38.1231C71.0278 38.5421 70.8765 39.0581 70.9118 39.5785V39.5785ZM77.4307 42.1375L75.4748 37.0134H76.3949L77.4984 40.0862C77.6133 40.4175 77.722 40.7631 77.8236 41.1149C77.9056 40.8441 78.0061 40.52 78.1487 40.1406L79.2861 37.0123H80.1384L78.1959 42.1375H77.4307V42.1375ZM84.3897 41.5077C84.1142 41.7506 83.8011 41.947 83.4625 42.0893C83.1548 42.2011 82.8287 42.2585 82.5005 42.2585C82.0312 42.287 81.568 42.14 81.201 41.8462C81.0527 41.7141 80.9352 41.551 80.8568 41.3684C80.7785 41.1859 80.7412 40.9883 80.7477 40.7898C80.7445 40.5551 80.7997 40.3233 80.9084 40.1152C81.0171 39.9072 81.1758 39.7294 81.3702 39.598C81.5631 39.4729 81.7723 39.3775 81.9938 39.3139C82.2482 39.2564 82.5056 39.2134 82.7651 39.1857C83.2904 39.1391 83.8096 39.0395 84.3149 38.8882V38.6575C84.3298 38.5226 84.3151 38.3862 84.2719 38.2576C84.2287 38.129 84.1579 38.0113 84.0646 37.9129C83.7836 37.6947 83.4316 37.5887 83.0769 37.6154C82.7616 37.5916 82.4468 37.6669 82.1764 37.8308C81.9477 38.0257 81.7948 38.2944 81.7425 38.5898L80.8902 38.4749C80.948 38.1554 81.0801 37.854 81.2759 37.5949C81.4748 37.3518 81.7405 37.1734 82.041 37.08C82.4154 36.9518 82.8092 36.8903 83.2051 36.8975C83.5661 36.8841 83.9261 36.9364 84.2677 37.0534C84.4938 37.1138 84.6975 37.2388 84.8538 37.4131C85.0101 37.5875 85.1122 37.8035 85.1477 38.0349C85.1825 38.2995 85.1959 38.5662 85.1887 38.8339V39.9908C85.1764 40.5036 85.1948 41.0164 85.242 41.5272C85.281 41.7426 85.3569 41.9477 85.4656 42.1375H84.559C84.4625 41.9395 84.4051 41.7262 84.3897 41.5077V41.5077ZM84.3149 39.5641C83.8559 39.7311 83.3787 39.8427 82.8933 39.8964C82.6372 39.9226 82.3851 39.9795 82.1425 40.0657C82.0026 40.1255 81.8827 40.2241 81.7969 40.3498C81.716 40.4724 81.6735 40.6163 81.6748 40.7631C81.6736 40.8735 81.6967 40.9828 81.7424 41.0833C81.7881 41.1838 81.8554 41.2731 81.9395 41.3447C82.16 41.5139 82.4338 41.5959 82.7107 41.5754C83.0225 41.5795 83.3292 41.5036 83.6041 41.358C83.8502 41.2195 84.0492 41.0093 84.1733 40.7559C84.282 40.479 84.3313 40.1816 84.3149 39.8831V39.5652V39.5641ZM88.5661 41.3652L88.6954 42.1303C88.4732 42.1805 88.2462 42.2056 88.0184 42.2052C87.7636 42.22 87.5092 42.1688 87.28 42.0564C87.1217 41.9782 86.9917 41.8528 86.9077 41.6975C86.8161 41.3648 86.7797 41.0194 86.8 40.6749V37.6903H86.1641V37.0134H86.8V35.7406L87.6656 35.2195V37.0123H88.5395V37.6893H87.6656V40.6882C87.6536 40.8478 87.6699 41.0082 87.7138 41.1621C87.7415 41.2339 87.7948 41.2944 87.8625 41.3313C87.9528 41.3826 88.0564 41.4062 88.16 41.399C88.2964 41.397 88.4318 41.3857 88.5661 41.3652V41.3652ZM89.5538 36.0647V35.0636H90.4215V36.0647H89.5549H89.5538ZM89.5538 42.157V37.0123H90.4215V42.1375L89.5549 42.158L89.5538 42.157ZM93.2974 42.1375L91.3487 37.0134H92.2615L93.3661 40.0862C93.481 40.4175 93.5959 40.7631 93.6902 41.1149C93.7723 40.8441 93.8738 40.52 94.0154 40.1406L95.1528 37.0123H96.0461L94.1107 42.1375H93.2984H93.2974ZM100.446 40.4923L101.347 40.6011C101.23 41.0831 100.953 41.5139 100.561 41.8195C100.067 42.146 99.4786 42.298 98.8885 42.2513C98.2984 42.2047 97.7409 41.9621 97.3046 41.5621C96.8319 41.0286 96.5887 40.3302 96.6277 39.6185C96.5836 38.88 96.8256 38.1518 97.3046 37.5877C97.5293 37.3588 97.7999 37.1802 98.0987 37.0635C98.3975 36.9468 98.7176 36.8948 99.0379 36.9108C99.3499 36.8971 99.6612 36.9505 99.9508 37.0673C100.24 37.184 100.502 37.3615 100.717 37.5877C101.189 38.1323 101.431 38.839 101.394 39.558V39.7949H97.5682C97.5733 40.2688 97.7436 40.7262 98.0502 41.0872C98.187 41.2326 98.3529 41.3475 98.537 41.4245C98.7211 41.5016 98.9194 41.539 99.119 41.5344C99.4123 41.5447 99.7015 41.4564 99.9384 41.2841C100.18 41.0749 100.357 40.799 100.446 40.4923V40.4923ZM97.5959 39.0841H100.446C100.438 38.735 100.322 38.3969 100.115 38.1159C99.989 37.967 99.8325 37.847 99.656 37.7642C99.4795 37.6813 99.2872 37.6376 99.0923 37.6359C98.9051 37.6302 98.7188 37.6633 98.5451 37.7332C98.3714 37.8031 98.214 37.9083 98.0831 38.0421C97.7979 38.3159 97.6256 38.6882 97.6031 39.0841H97.5959V39.0841ZM105.239 39.8698L106.125 39.7877C106.151 40.0985 106.25 40.398 106.416 40.6616C106.597 40.9077 106.844 41.0975 107.127 41.2093C107.776 41.4689 108.496 41.4882 109.158 41.2636C109.401 41.1785 109.614 41.0257 109.774 40.8236C109.9 40.6493 109.969 40.438 109.97 40.2216C109.976 40.0113 109.909 39.8055 109.78 39.639C109.608 39.4432 109.386 39.2982 109.137 39.2195C108.724 39.0821 108.304 38.967 107.879 38.8749C107.413 38.7763 106.959 38.6285 106.525 38.4339C106.218 38.2797 105.959 38.0459 105.773 37.757C105.604 37.4951 105.517 37.1887 105.523 36.877C105.523 36.5211 105.629 36.1713 105.828 35.8759C106.047 35.5646 106.357 35.3283 106.715 35.199C107.128 35.0329 107.569 34.9499 108.014 34.9549C108.489 34.9447 108.961 35.0298 109.402 35.2052C109.775 35.3547 110.094 35.6114 110.321 35.9428C110.547 36.2742 110.671 36.6653 110.675 37.0667L109.774 37.1344C109.765 36.9423 109.717 36.7541 109.633 36.5809C109.549 36.4077 109.432 36.2531 109.287 36.1262C108.929 35.8716 108.493 35.7494 108.054 35.7806C107.618 35.7426 107.183 35.8523 106.816 36.0923C106.698 36.1789 106.601 36.2919 106.534 36.4225C106.467 36.553 106.431 36.6974 106.43 36.8441C106.427 36.9622 106.45 37.0794 106.497 37.1878C106.544 37.2962 106.613 37.3934 106.7 37.4729C107.133 37.7344 107.615 37.9036 108.116 37.9744C108.649 38.0818 109.171 38.2334 109.679 38.4277C110.045 38.5734 110.364 38.8175 110.6 39.1313C110.799 39.4298 110.904 39.7816 110.897 40.1406C110.897 40.519 110.785 40.8893 110.573 41.2031C110.346 41.5493 110.021 41.8202 109.639 41.9816C109.214 42.1733 108.751 42.2679 108.285 42.2585C107.735 42.2742 107.187 42.18 106.674 41.9816C106.258 41.8085 105.904 41.5135 105.658 41.1354C105.399 40.763 105.253 40.3234 105.239 39.8698V39.8698ZM111.845 39.5785C111.813 39.1903 111.867 38.7998 112.003 38.4347C112.139 38.0696 112.353 37.7388 112.631 37.4657C113.081 37.0832 113.657 36.8808 114.248 36.8975C114.567 36.8844 114.885 36.9378 115.182 37.0543C115.48 37.1709 115.749 37.348 115.974 37.5744C116.208 37.833 116.389 38.1355 116.505 38.4644C116.621 38.7933 116.671 39.142 116.651 39.4903C116.676 40.0254 116.574 40.5587 116.354 41.0472C116.16 41.4212 115.858 41.7279 115.487 41.9272C115.112 42.1385 114.687 42.2482 114.255 42.2452C113.933 42.2604 113.611 42.208 113.31 42.0915C113.01 41.9749 112.737 41.7967 112.509 41.5682C112.035 41.0177 111.797 40.3031 111.845 39.5785V39.5785ZM112.739 39.5785C112.698 40.1067 112.853 40.6308 113.172 41.0544C113.307 41.2086 113.473 41.332 113.659 41.4164C113.845 41.5008 114.048 41.5442 114.252 41.5436C114.457 41.5435 114.658 41.4997 114.845 41.4154C115.031 41.331 115.197 41.208 115.331 41.0544C115.649 40.6206 115.801 40.0872 115.758 39.5508C115.802 39.0351 115.652 38.5214 115.338 38.1098C115.205 37.954 115.039 37.8304 114.851 37.7481C114.664 37.6659 114.46 37.6272 114.255 37.6349C114.05 37.6287 113.845 37.6695 113.658 37.7541C113.47 37.8387 113.304 37.9649 113.172 38.1231C112.856 38.5395 112.703 39.0564 112.739 39.5785V39.5785ZM117.783 42.1375V35.0636H118.649V42.1375H117.783ZM123.462 42.1375V41.3857C123.29 41.6603 123.05 41.8854 122.765 42.0387C122.48 42.192 122.16 42.2681 121.837 42.2595C121.546 42.2607 121.257 42.2005 120.991 42.0831C120.76 41.9923 120.559 41.8397 120.409 41.6421C120.269 41.4397 120.176 41.2083 120.137 40.9652C120.095 40.6969 120.077 40.4254 120.084 40.1539V37.0123H120.957V39.8554C120.947 40.1631 120.963 40.4708 121.004 40.7764C121.056 40.9898 121.181 41.1786 121.356 41.3108C121.554 41.4503 121.792 41.519 122.033 41.5077C122.291 41.5077 122.544 41.437 122.764 41.3047C122.984 41.1862 123.157 40.9947 123.251 40.7631C123.362 40.4411 123.41 40.1006 123.394 39.7611V37.0123H124.26V42.1375H123.462V42.1375ZM127.651 41.3652L127.773 42.1303C127.552 42.1816 127.324 42.2062 127.096 42.2052C126.844 42.2193 126.592 42.1681 126.365 42.0564C126.201 41.9725 126.072 41.8334 126 41.6636C125.904 41.3317 125.868 40.9856 125.891 40.6411V37.6893H125.255V37.0123H125.891V35.7406L126.758 35.2195V37.0123H127.632V37.6893H126.778V40.6882C126.769 40.8472 126.783 41.0062 126.819 41.1621C126.85 41.2349 126.905 41.2954 126.974 41.3313C127.062 41.3829 127.164 41.4065 127.266 41.399C127.395 41.3959 127.524 41.3847 127.651 41.3652V41.3652ZM128.633 36.0647V35.0636H129.499V36.0647H128.633ZM128.633 42.157V37.0123H129.499V42.1375L128.633 42.158V42.157ZM130.63 39.5785C130.598 39.1897 130.653 38.7988 130.79 38.4336C130.927 38.0684 131.143 37.7379 131.423 37.4657C131.871 37.0841 132.444 36.8821 133.033 36.8975C133.353 36.8851 133.672 36.9388 133.97 37.0552C134.268 37.1717 134.539 37.3484 134.766 37.5744C135 37.833 135.181 38.1355 135.297 38.4644C135.413 38.7933 135.463 39.142 135.443 39.4903C135.467 40.0254 135.365 40.5586 135.146 41.0472C134.952 41.4209 134.65 41.7276 134.279 41.9272C133.9 42.1381 133.473 42.2476 133.04 42.2452C132.719 42.26 132.398 42.2074 132.099 42.0908C131.799 41.9742 131.527 41.7962 131.3 41.5682C130.825 41.0186 130.584 40.304 130.63 39.5785V39.5785ZM131.524 39.5785C131.484 40.1056 131.635 40.6294 131.95 41.0544C132.084 41.2096 132.25 41.3336 132.437 41.4177C132.624 41.5019 132.828 41.5442 133.033 41.5416C133.238 41.5459 133.441 41.5037 133.628 41.4181C133.815 41.3324 133.979 41.2056 134.11 41.0472C134.433 40.6164 134.588 40.0811 134.543 39.5447C134.577 39.0298 134.424 38.519 134.11 38.1088C133.979 37.9507 133.814 37.8242 133.628 37.7388C133.441 37.6534 133.238 37.6112 133.033 37.6154C132.828 37.6121 132.624 37.654 132.437 37.7382C132.25 37.8224 132.083 37.9468 131.95 38.1026C131.634 38.5271 131.483 39.0513 131.524 39.5785V39.5785ZM136.58 42.1375V37.0123H137.366V37.7436C137.541 37.4655 137.789 37.24 138.082 37.091C138.375 36.9421 138.703 36.8752 139.031 36.8975C139.323 36.8954 139.613 36.9508 139.884 37.0606C140.115 37.1508 140.316 37.3026 140.466 37.5006C140.603 37.7036 140.695 37.9344 140.736 38.1775C140.773 38.4575 140.79 38.7406 140.785 39.0236V42.1713H139.911V39.0575C139.923 38.7869 139.889 38.5163 139.809 38.2575C139.741 38.081 139.614 37.9332 139.45 37.839C139.268 37.733 139.059 37.6791 138.848 37.6831C138.495 37.6757 138.152 37.8013 137.887 38.0349C137.729 38.2199 137.612 38.436 137.543 38.6693C137.474 38.9025 137.455 39.1477 137.487 39.3888V42.1847L136.58 42.1375V42.1375ZM141.86 40.6072L142.72 40.4718C142.748 40.7795 142.893 41.0626 143.126 41.2636C143.391 41.4626 143.717 41.5611 144.047 41.5406C144.364 41.567 144.681 41.481 144.94 41.2975C145.029 41.2298 145.1 41.1428 145.149 41.0433C145.198 40.9437 145.224 40.8342 145.225 40.7231C145.228 40.6308 145.207 40.5393 145.163 40.4581C145.119 40.3769 145.054 40.3091 144.974 40.2616C144.689 40.1289 144.389 40.0291 144.081 39.9641C143.619 39.8661 143.166 39.7278 142.727 39.5508C142.5 39.443 142.308 39.2744 142.171 39.0636C141.99 38.7657 141.929 38.4096 142.003 38.0685C142.076 37.7274 142.277 37.4273 142.564 37.2298C142.732 37.1108 142.92 37.0236 143.119 36.9723C143.362 36.9026 143.612 36.8688 143.864 36.8698C144.227 36.8616 144.587 36.9211 144.927 37.0462C145.192 37.1354 145.427 37.2975 145.604 37.5139C145.763 37.7508 145.865 38.0226 145.902 38.3057L145.048 38.4277C145.025 38.1845 144.905 37.9607 144.717 37.8052C144.488 37.6435 144.211 37.5647 143.931 37.5816C143.63 37.5564 143.329 37.6275 143.072 37.7847C142.995 37.835 142.933 37.9033 142.889 37.9836C142.845 38.0639 142.822 38.1538 142.822 38.2452C142.82 38.3552 142.856 38.4626 142.923 38.5498C143.013 38.6555 143.13 38.7349 143.262 38.7795C143.343 38.7795 143.6 38.8882 144.027 39.0031C144.465 39.1077 144.894 39.2441 145.313 39.4093C145.543 39.5047 145.742 39.6616 145.888 39.8626C146.03 40.0841 146.1 40.3447 146.091 40.6072C146.091 40.8995 146.004 41.1847 145.841 41.4267C145.66 41.6918 145.406 41.8986 145.11 42.0216C144.767 42.1638 144.398 42.2353 144.027 42.2318C143.486 42.2664 142.95 42.1183 142.504 41.8113C142.148 41.5036 141.918 41.0749 141.86 40.6072V40.6072Z" fill="#394253"></path><path fill-rule="evenodd" clip-rule="evenodd" d="M24.36 15.9743C24.6098 15.9743 24.8572 15.9251 25.088 15.8295C25.3189 15.7339 25.5286 15.5937 25.7053 15.4171C25.8819 15.2404 26.0221 15.0307 26.1177 14.7998C26.2133 14.569 26.2625 14.3216 26.2625 14.0718C26.2625 13.8219 26.2133 13.5745 26.1177 13.3437C26.0221 13.1128 25.8819 12.9031 25.7053 12.7264C25.5286 12.5498 25.3189 12.4096 25.088 12.314C24.8572 12.2184 24.6098 12.1692 24.36 12.1692C23.8554 12.1692 23.3714 12.3696 23.0146 12.7264C22.6578 13.0832 22.4574 13.5672 22.4574 14.0718C22.4574 14.5763 22.6578 15.0603 23.0146 15.4171C23.3714 15.7739 23.8554 15.9743 24.36 15.9743Z" fill="url(#paint0_linear_211_75)"></path><path fill-rule="evenodd" clip-rule="evenodd" d="M22.3836 19.2708C22.8882 19.2708 23.3722 19.0704 23.729 18.7136C24.0858 18.3568 24.2862 17.8729 24.2862 17.3683C24.2862 16.8637 24.0858 16.3797 23.729 16.0229C23.3722 15.6661 22.8882 15.4657 22.3836 15.4657C21.8791 15.4657 21.3951 15.6661 21.0383 16.0229C20.6815 16.3797 20.4811 16.8637 20.4811 17.3683C20.4811 17.8729 20.6815 18.3568 21.0383 18.7136C21.3951 19.0704 21.8791 19.2708 22.3836 19.2708V19.2708Z" fill="url(#paint1_linear_211_75)"></path><path fill-rule="evenodd" clip-rule="evenodd" d="M24.3262 17.3692C24.3315 17.872 24.5337 18.3528 24.8894 18.7082C25.2451 19.0637 25.7259 19.2657 26.2287 19.2707C26.6047 19.2705 26.9722 19.1589 27.2848 18.9498C27.5973 18.7408 27.8409 18.4438 27.9847 18.0964C28.1285 17.749 28.1661 17.3667 28.0927 16.998C28.0193 16.6292 27.8382 16.2905 27.5723 16.0246C27.3064 15.7587 26.9677 15.5776 26.5989 15.5042C26.2302 15.4308 25.8479 15.4684 25.5005 15.6122C25.1531 15.756 24.8561 15.9996 24.6471 16.3121C24.438 16.6247 24.3264 16.9922 24.3262 17.3682V17.3692Z" fill="url(#paint2_linear_211_75)"></path><path fill-rule="evenodd" clip-rule="evenodd" d="M20.5148 22.5538C20.8912 22.554 21.2591 22.4426 21.5721 22.2336C21.8851 22.0247 22.1291 21.7276 22.2733 21.38C22.4174 21.0324 22.4553 20.6498 22.382 20.2807C22.3087 19.9116 22.1276 19.5724 21.8615 19.3063C21.5955 19.0401 21.2565 18.8588 20.8874 18.7853C20.5183 18.7118 20.1357 18.7494 19.788 18.8934C19.4403 19.0374 19.1431 19.2812 18.934 19.5941C18.7249 19.907 18.6133 20.2749 18.6133 20.6512C18.6146 21.1554 18.8155 21.6385 19.172 21.995C19.5285 22.3515 20.0117 22.5524 20.5158 22.5538H20.5148Z" fill="url(#paint3_linear_211_75)"></path><path fill-rule="evenodd" clip-rule="evenodd" d="M26.2616 20.6512C26.2636 20.96 26.3406 21.2636 26.4858 21.536C26.631 21.8084 26.8402 22.0416 27.0954 22.2153C26.842 22.1106 26.5695 22.06 26.2954 22.0666C26.0447 22.063 25.7958 22.1098 25.5635 22.2041C25.3312 22.2983 25.1201 22.4383 24.9428 22.6156C24.7655 22.7929 24.6256 23.0039 24.5313 23.2362C24.437 23.4686 24.3903 23.7175 24.3939 23.9682C24.3945 24.295 24.4794 24.6161 24.6402 24.9006C24.8011 25.1851 25.0325 25.4234 25.3122 25.5925C25.5919 25.7615 25.9104 25.8557 26.2371 25.8659C26.5637 25.8761 26.8875 25.802 27.1772 25.6507C27.4669 25.4994 27.7127 25.276 27.891 25.0021C28.0693 24.7282 28.174 24.413 28.195 24.0868C28.2161 23.7607 28.1528 23.4346 28.0112 23.1401C27.8696 22.8455 27.6545 22.5924 27.3867 22.4051C27.6287 22.522 27.8954 22.5815 28.1641 22.5805C28.6609 22.5689 29.1335 22.3635 29.4808 22.008C29.8281 21.6526 30.0225 21.1754 30.0225 20.6784C30.0225 20.1815 29.8281 19.7043 29.4808 19.3488C29.1335 18.9934 28.6609 18.7879 28.1641 18.7764C27.6661 18.7818 27.1896 18.9802 26.8349 19.3299C26.4802 19.6796 26.275 20.1533 26.2626 20.6512H26.2616Z" fill="url(#paint4_linear_211_75)"></path><path fill-rule="evenodd" clip-rule="evenodd" d="M28.2318 23.9415C28.2321 24.2502 28.3076 24.5542 28.4516 24.8272C28.5956 25.1003 28.804 25.3341 29.0586 25.5087C29.3132 25.6833 29.6065 25.7932 29.9131 25.8291C30.2197 25.8651 30.5304 25.8258 30.8185 25.7148C30.4493 26.0038 30.2033 26.4219 30.13 26.8849C30.0566 27.348 30.1614 27.8216 30.4232 28.2105C30.685 28.5995 31.0844 28.8748 31.541 28.9811C31.9976 29.0874 32.4775 29.0168 32.8842 28.7835C33.2909 28.5502 33.5941 28.1716 33.7328 27.7237C33.8715 27.2759 33.8355 26.7921 33.6319 26.3698C33.4283 25.9475 33.0724 25.618 32.6356 25.4475C32.1989 25.2771 31.7138 25.2784 31.278 25.4512C31.5841 25.2089 31.808 24.8779 31.9191 24.5036C32.0303 24.1293 32.0232 23.7298 31.8989 23.3596C31.7746 22.9895 31.5392 22.6667 31.2247 22.4353C30.9102 22.2039 30.5319 22.0751 30.1416 22.0666C29.8924 22.062 29.6449 22.107 29.4134 22.1992C29.1818 22.2913 28.971 22.4287 28.7932 22.6033C28.6154 22.7778 28.4742 22.9861 28.3778 23.2159C28.2814 23.4456 28.2318 23.6923 28.2318 23.9415V23.9415Z" fill="url(#paint5_linear_211_75)"></path><path fill-rule="evenodd" clip-rule="evenodd" d="M16.8871 29.0656C17.382 29.06 17.8548 28.8604 18.2041 28.5098C18.5533 28.1592 18.7511 27.6856 18.7548 27.1907C18.7528 26.9106 18.6872 26.6345 18.5628 26.3834C18.4384 26.1324 18.2586 25.9129 18.0369 25.7415C18.2225 25.8061 18.4164 25.841 18.6133 25.8441C19.1168 25.8406 19.5987 25.639 19.9547 25.283C20.3108 24.9269 20.5124 24.445 20.5158 23.9415C20.5141 23.6193 20.4305 23.3027 20.2729 23.0216C20.1153 22.7405 19.8888 22.504 19.6148 22.3344C19.3408 22.1647 19.0282 22.0675 18.7063 22.0517C18.3844 22.036 18.0638 22.1022 17.7746 22.2443C17.4853 22.3864 17.2369 22.5996 17.0526 22.864C16.8683 23.1283 16.7541 23.4352 16.7209 23.7558C16.6877 24.0763 16.7364 24.4001 16.8625 24.6966C16.9886 24.9932 17.188 25.2529 17.442 25.4513C17.264 25.3866 17.0765 25.352 16.8871 25.3487C16.4093 25.3761 15.96 25.5853 15.6313 25.9333C15.3027 26.2813 15.1196 26.7418 15.1196 27.2205C15.1196 27.6992 15.3027 28.1597 15.6313 28.5077C15.96 28.8557 16.4093 29.0649 16.8871 29.0923V29.0656V29.0656Z" fill="url(#paint6_linear_211_75)"></path><path fill-rule="evenodd" clip-rule="evenodd" d="M18.7887 27.1908C18.7874 27.5077 18.8674 27.8196 19.021 28.0967C19.1746 28.3739 19.3966 28.6071 19.666 28.774C19.9353 28.941 20.2429 29.0361 20.5594 29.0504C20.876 29.0647 21.1909 28.9976 21.4741 28.8556C21.7574 28.7136 21.9995 28.5014 22.1775 28.2392C22.3554 27.977 22.4631 27.6736 22.4905 27.3579C22.5178 27.0422 22.4638 26.7248 22.3335 26.4359C22.2033 26.147 22.0013 25.8963 21.7466 25.7078C21.963 25.7919 22.1928 25.837 22.4235 25.8431C22.9264 25.8381 23.4072 25.6361 23.7629 25.2806C24.1186 24.9252 24.3208 24.4444 24.3261 23.9416C24.3263 23.6341 24.2519 23.3312 24.1094 23.0588C23.9668 22.7864 23.7603 22.5526 23.5076 22.3775C23.7517 22.4944 24.0205 22.5549 24.2923 22.5539C24.5421 22.5539 24.7895 22.5047 25.0203 22.4091C25.2512 22.3135 25.4609 22.1733 25.6376 21.9967C25.8142 21.82 25.9544 21.6103 26.05 21.3794C26.1456 21.1486 26.1948 20.9012 26.1948 20.6513C26.1948 20.4015 26.1456 20.1541 26.05 19.9233C25.9544 19.6924 25.8142 19.4827 25.6376 19.306C25.4609 19.1294 25.2512 18.9892 25.0203 18.8936C24.7895 18.798 24.5421 18.7488 24.2923 18.7488C23.8922 18.762 23.5065 18.9012 23.1901 19.1465C22.8738 19.3918 22.6429 19.7306 22.5304 20.1148C22.4179 20.4989 22.4295 20.9088 22.5635 21.286C22.6975 21.6632 22.9472 21.9884 23.2769 22.2154C23.018 22.1072 22.7388 22.0564 22.4584 22.0667C22.2108 22.064 21.9651 22.1105 21.7356 22.2036C21.5061 22.2967 21.2973 22.4345 21.1216 22.6089C20.9458 22.7834 20.8064 22.991 20.7116 23.2198C20.6168 23.4486 20.5683 23.6939 20.5692 23.9416C20.5687 24.2336 20.6356 24.5217 20.7648 24.7836C20.8939 25.0455 21.0818 25.274 21.3138 25.4513C21.0981 25.3659 20.8688 25.32 20.6369 25.316C20.3922 25.317 20.1502 25.3664 19.9247 25.4614C19.6992 25.5563 19.4947 25.6949 19.3229 25.8691C19.1512 26.0433 19.0156 26.2498 18.9239 26.4766C18.8322 26.7035 18.7862 26.9462 18.7887 27.1908V27.1908Z" fill="url(#paint7_linear_211_75)"></path><path fill-rule="evenodd" clip-rule="evenodd" d="M24.3948 25.322C23.9169 25.3494 23.4677 25.5586 23.139 25.9066C22.8104 26.2546 22.6273 26.7152 22.6273 27.1938C22.6273 27.6725 22.8104 28.133 23.139 28.481C23.4677 28.8291 23.9169 29.0382 24.3948 29.0656C24.8727 29.0382 25.322 28.8291 25.6506 28.481C25.9792 28.133 26.1623 27.6725 26.1623 27.1938C26.1623 26.7152 25.9792 26.2546 25.6506 25.9066C25.322 25.5586 24.8727 25.3494 24.3948 25.322Z" fill="url(#paint8_linear_211_75)"></path><path fill-rule="evenodd" clip-rule="evenodd" d="M28.1641 25.322C27.6862 25.3494 27.2369 25.5586 26.9083 25.9066C26.5797 26.2546 26.3966 26.7152 26.3966 27.1938C26.3966 27.6725 26.5797 28.133 26.9083 28.481C27.2369 28.8291 27.6862 29.0382 28.1641 29.0656C28.642 29.0382 29.0913 28.8291 29.4199 28.481C29.7485 28.133 29.9316 27.6725 29.9316 27.1938C29.9316 26.7152 29.7485 26.2546 29.4199 25.9066C29.0913 25.5586 28.642 25.3494 28.1641 25.322Z" fill="url(#paint9_linear_211_75)"></path><path fill-rule="evenodd" clip-rule="evenodd" d="M14.4769 32.4502C14.8462 32.45 15.2071 32.3403 15.5141 32.135C15.8211 31.9297 16.0603 31.638 16.2016 31.2968C16.3428 30.9556 16.3797 30.5801 16.3076 30.2179C16.2355 29.8557 16.0576 29.523 15.7965 29.2619C15.5354 29.0007 15.2027 28.8229 14.8405 28.7508C14.4783 28.6787 14.1028 28.7156 13.7616 28.8568C13.4204 28.9981 13.1286 29.2373 12.9233 29.5443C12.718 29.8512 12.6084 30.2122 12.6082 30.5815C12.6114 31.0761 12.8093 31.5496 13.1591 31.8993C13.5088 32.2491 13.9823 32.447 14.4769 32.4502V32.4502Z" fill="url(#paint10_linear_211_75)"></path><path fill-rule="evenodd" clip-rule="evenodd" d="M16.9211 30.5815C16.9243 31.076 17.1221 31.5492 17.4716 31.899C17.8211 32.2487 18.2943 32.4467 18.7888 32.4502C19.1581 32.45 19.519 32.3403 19.826 32.135C20.133 31.9297 20.3722 31.638 20.5135 31.2968C20.6547 30.9556 20.6916 30.5801 20.6195 30.2179C20.5474 29.8557 20.3695 29.523 20.1084 29.2619C19.8473 29.0007 19.5146 28.8229 19.1524 28.7508C18.7902 28.6787 18.4147 28.7156 18.0735 28.8568C17.7322 28.9981 17.4405 29.2373 17.2352 29.5443C17.0299 29.8512 16.9202 30.2122 16.92 30.5815H16.9211Z" fill="url(#paint11_linear_211_75)"></path><path fill-rule="evenodd" clip-rule="evenodd" d="M24.3949 30.5815C24.3947 30.2122 24.285 29.8512 24.0797 29.5443C23.8744 29.2373 23.5827 28.9981 23.2415 28.8568C22.9003 28.7156 22.5248 28.6787 22.1626 28.7508C21.8004 28.8229 21.4677 29.0007 21.2066 29.2619C20.9454 29.523 20.7676 29.8557 20.6955 30.2179C20.6234 30.5801 20.6603 30.9556 20.8015 31.2968C20.9428 31.638 21.182 31.9297 21.489 32.135C21.7959 32.3403 22.1569 32.45 22.5262 32.4502C22.7719 32.4513 23.0153 32.4037 23.2425 32.3102C23.4696 32.2166 23.676 32.079 23.8497 31.9053C24.0233 31.7315 24.1608 31.5251 24.2542 31.2978C24.3477 31.0706 24.3951 30.8272 24.3939 30.5815H24.3949Z" fill="url(#paint12_linear_211_75)"></path><path fill-rule="evenodd" clip-rule="evenodd" d="M24.4277 30.5815C24.4277 31.0773 24.6247 31.5527 24.9752 31.9033C25.3258 32.2538 25.8012 32.4507 26.297 32.4507C26.7927 32.4507 27.2682 32.2538 27.6187 31.9033C27.9693 31.5527 28.1662 31.0773 28.1662 30.5815C28.1662 30.0858 27.9693 29.6103 27.6187 29.2598C27.2682 28.9092 26.7927 28.7123 26.297 28.7123C25.8012 28.7123 25.3258 28.9092 24.9752 29.2598C24.6247 29.6103 24.4277 30.0858 24.4277 30.5815V30.5815Z" fill="url(#paint13_linear_211_75)"></path><path fill-rule="evenodd" clip-rule="evenodd" d="M30.0462 28.7128C29.5506 28.7128 29.0753 28.9097 28.7248 29.2601C28.3744 29.6106 28.1775 30.0859 28.1775 30.5815C28.1775 31.0771 28.3744 31.5524 28.7248 31.9029C29.0753 32.2533 29.5506 32.4502 30.0462 32.4502C30.5417 32.4502 31.0169 32.2534 31.3672 31.903C31.7176 31.5527 31.9144 31.0775 31.9144 30.582C31.9144 30.0865 31.7176 29.6113 31.3672 29.261C31.0169 28.9106 30.5417 28.7138 30.0462 28.7138V28.7128Z" fill="url(#paint14_linear_211_75)"></path><path fill-rule="evenodd" clip-rule="evenodd" d="M31.9753 30.5815C31.9753 31.0771 32.1722 31.5524 32.5227 31.9029C32.8731 32.2533 33.3484 32.4502 33.8441 32.4502C34.3397 32.4502 34.815 32.2533 35.1654 31.9029C35.5159 31.5524 35.7128 31.0771 35.7128 30.5815C35.7128 30.0859 35.5159 29.6106 35.1654 29.2601C34.815 28.9097 34.3397 28.7128 33.8441 28.7128C33.3484 28.7128 32.8731 28.9097 32.5227 29.2601C32.1722 29.6106 31.9753 30.0859 31.9753 30.5815V30.5815Z" fill="url(#paint15_linear_211_75)"></path><path fill-rule="evenodd" clip-rule="evenodd" d="M10.7949 35.7405C11.0404 35.741 11.2836 35.6931 11.5105 35.5993C11.7374 35.5056 11.9435 35.3679 12.1171 35.1943C12.2906 35.0207 12.4282 34.8144 12.5218 34.5875C12.6154 34.3605 12.6632 34.1173 12.6626 33.8718C12.6575 33.3779 12.4591 32.9057 12.11 32.5564C11.7608 32.207 11.2887 32.0084 10.7949 32.0031C10.3024 32.013 9.83282 32.2131 9.48451 32.5614C9.13619 32.9097 8.93611 33.3793 8.92615 33.8718C8.93122 34.3658 9.12973 34.8382 9.47909 35.1875C9.82845 35.5369 10.3008 35.7354 10.7949 35.7405V35.7405Z" fill="url(#paint16_linear_211_75)"></path><path fill-rule="evenodd" clip-rule="evenodd" d="M14.843 34.1487C14.8481 34.6426 15.0465 35.1148 15.3956 35.4641C15.7447 35.8134 16.2168 36.0121 16.7107 36.0174C17.0805 36.0191 17.4425 35.9106 17.7504 35.7057C18.0583 35.5008 18.2982 35.2089 18.4395 34.8671C18.5808 34.5253 18.6171 34.1492 18.5437 33.7867C18.4704 33.4242 18.2907 33.0917 18.0276 32.8318C17.678 32.4824 17.205 32.2845 16.7107 32.281C16.2185 32.2915 15.7493 32.4918 15.4013 32.84C15.0532 33.1882 14.8532 33.6575 14.843 34.1497V34.1487Z" fill="url(#paint17_linear_211_75)"></path><path fill-rule="evenodd" clip-rule="evenodd" d="M22.4246 35.0492C22.4222 34.6518 22.2922 34.2657 22.0537 33.9478C21.8153 33.6299 21.481 33.397 21.1002 33.2835C20.7193 33.1699 20.3121 33.1817 19.9385 33.3171C19.5649 33.4525 19.2446 33.7044 19.025 34.0355C18.8053 34.3667 18.6979 34.7597 18.7184 35.1565C18.739 35.5534 18.8865 35.9331 19.1392 36.2398C19.392 36.5465 19.7365 36.7639 20.1221 36.8599C20.5077 36.956 20.914 36.9256 21.281 36.7733C21.6207 36.6314 21.9107 36.392 22.1143 36.0853C22.3179 35.7786 22.4259 35.4183 22.4246 35.0502V35.0492Z" fill="url(#paint18_linear_211_75)"></path><path fill-rule="evenodd" clip-rule="evenodd" d="M24.4277 35.7405C24.6733 35.7412 24.9166 35.6933 25.1436 35.5996C25.3706 35.5059 25.5769 35.3683 25.7506 35.1947C25.9242 35.021 26.0619 34.8147 26.1555 34.5877C26.2492 34.3607 26.2971 34.1174 26.2964 33.8718C26.2913 33.3777 26.0928 32.9054 25.7435 32.556C25.3941 32.2066 24.9217 32.0081 24.4277 32.0031C23.9353 32.0133 23.4659 32.2134 23.1176 32.5617C22.7693 32.91 22.5692 33.3794 22.559 33.8718C22.564 34.3658 22.7625 34.8382 23.1119 35.1875C23.4613 35.5369 23.9336 35.7354 24.4277 35.7405V35.7405Z" fill="url(#paint19_linear_211_75)"></path><path fill-rule="evenodd" clip-rule="evenodd" d="M30.0462 33.8718C30.0462 33.376 29.8493 32.9006 29.4987 32.55C29.1482 32.1995 28.6727 32.0026 28.177 32.0026C27.6812 32.0026 27.2058 32.1995 26.8552 32.55C26.5047 32.9006 26.3077 33.376 26.3077 33.8718C26.3077 34.3675 26.5047 34.843 26.8552 35.1935C27.2058 35.5441 27.6812 35.741 28.177 35.741C28.6727 35.741 29.1482 35.5441 29.4987 35.1935C29.8493 34.843 30.0462 34.3675 30.0462 33.8718V33.8718Z" fill="url(#paint20_linear_211_75)"></path><path fill-rule="evenodd" clip-rule="evenodd" d="M30.1077 33.9395C30.1019 34.1885 30.1459 34.4362 30.2372 34.668C30.3284 34.8997 30.4651 35.1109 30.6391 35.2891C30.8132 35.4673 31.0211 35.6089 31.2507 35.7055C31.4803 35.8022 31.7268 35.852 31.9759 35.852C32.225 35.852 32.4716 35.8022 32.7011 35.7055C32.9307 35.6089 33.1386 35.4673 33.3127 35.2891C33.4867 35.1109 33.6234 34.8997 33.7147 34.668C33.806 34.4362 33.85 34.1885 33.8441 33.9395C33.8441 33.4439 33.6472 32.9686 33.2968 32.6181C32.9463 32.2677 32.471 32.0708 31.9754 32.0708C31.4798 32.0708 31.0045 32.2677 30.654 32.6181C30.3036 32.9686 30.1067 33.4439 30.1067 33.9395H30.1077Z" fill="url(#paint21_linear_211_75)"></path><path fill-rule="evenodd" clip-rule="evenodd" d="M34.5343 34.0144C34.5345 34.3837 34.6442 34.7447 34.8496 35.0517C35.0549 35.3587 35.3467 35.5979 35.688 35.7391C36.0293 35.8804 36.4048 35.9172 36.767 35.845C37.1292 35.7728 37.4619 35.5949 37.723 35.3336C37.9841 35.0724 38.1619 34.7396 38.2339 34.3773C38.3059 34.0151 38.2688 33.6396 38.1274 33.2984C37.986 32.9571 37.7467 32.6655 37.4395 32.4603C37.1324 32.2552 36.7714 32.1456 36.402 32.1456C36.1564 32.1448 35.9131 32.1926 35.6861 32.2863C35.459 32.3799 35.2528 32.5175 35.0792 32.6912C34.9056 32.8649 34.768 33.0713 34.6745 33.2983C34.581 33.5254 34.5334 33.7688 34.5343 34.0144V34.0144Z" fill="url(#paint22_linear_211_75)"></path><path fill-rule="evenodd" clip-rule="evenodd" d="M26.3641 38.5077C26.6831 38.505 26.9942 38.4077 27.2578 38.2281C27.5215 38.0485 27.7259 37.7946 27.8451 37.4987C27.9644 37.2028 27.9931 36.8782 27.9277 36.5659C27.8623 36.2537 27.7056 35.9679 27.4776 35.7448C27.2496 35.5217 26.9604 35.3713 26.6469 35.3126C26.3333 35.254 26.0093 35.2897 25.7161 35.4154C25.4229 35.541 25.1735 35.7509 24.9997 36.0184C24.8258 36.2858 24.7353 36.5989 24.7395 36.9179C24.7471 37.3432 24.9218 37.7485 25.2258 38.046C25.5298 38.3435 25.9388 38.5094 26.3641 38.5077V38.5077Z" fill="url(#paint23_linear_211_75)"></path><path fill-rule="evenodd" clip-rule="evenodd" d="M29.7549 39.1313C30.1005 39.1279 30.4358 39.0133 30.7112 38.8046C30.9867 38.5959 31.1877 38.3042 31.2845 37.9724C31.3814 37.6407 31.3689 37.2866 31.249 36.9625C31.1291 36.6384 30.9082 36.3614 30.6187 36.1726C30.3293 35.9837 29.9868 35.893 29.6419 35.9138C29.2969 35.9346 28.9678 36.0658 28.7032 36.2881C28.4385 36.5104 28.2524 36.8119 28.1724 37.148C28.0923 37.4842 28.1225 37.8372 28.2585 38.1549C28.383 38.4479 28.5919 38.6972 28.8586 38.871C29.1253 39.0449 29.4376 39.1355 29.7559 39.1313H29.7549Z" fill="url(#paint24_linear_211_75)"></path><path fill-rule="evenodd" clip-rule="evenodd" d="M33.0452 35.9158C32.6188 35.9435 32.2208 36.1393 31.9388 36.4603C31.6569 36.7814 31.514 37.2013 31.5416 37.6276C31.5692 38.054 31.765 38.452 32.0861 38.734C32.4071 39.0159 32.827 39.1588 33.2534 39.1312C33.6798 39.1036 34.0777 38.9078 34.3597 38.5867C34.6417 38.2657 34.7846 37.8458 34.757 37.4194C34.7294 36.993 34.5335 36.5951 34.2125 36.3131C33.8914 36.0311 33.4716 35.8882 33.0452 35.9158Z" fill="url(#paint25_linear_211_75)"></path><path fill-rule="evenodd" clip-rule="evenodd" d="M36.3005 35.9159C35.9833 35.9187 35.674 36.0152 35.4114 36.1932C35.1488 36.3713 34.9446 36.6229 34.8245 36.9165C34.7044 37.2102 34.6738 37.5328 34.7364 37.8438C34.7989 38.1548 34.952 38.4404 35.1763 38.6647C35.4007 38.889 35.6863 39.0421 35.9973 39.1047C36.3083 39.1673 36.6309 39.1366 36.9245 39.0165C37.2182 38.8964 37.4698 38.6923 37.6478 38.4297C37.8258 38.1671 37.9223 37.8577 37.9252 37.5405C37.9252 37.1096 37.754 36.6964 37.4493 36.3917C37.1446 36.0871 36.7314 35.9159 36.3005 35.9159V35.9159Z" fill="url(#paint26_linear_211_75)"></path><path fill-rule="evenodd" clip-rule="evenodd" d="M39.5231 39.1313C39.9501 39.1278 40.3583 38.9548 40.6578 38.6503C40.9573 38.3458 41.1235 37.9348 41.12 37.5077C41.1164 37.0807 40.9434 36.6725 40.6389 36.373C40.3344 36.0735 39.9235 35.9073 39.4964 35.9108C39.2849 35.9126 39.0759 35.956 38.8812 36.0385C38.6865 36.121 38.51 36.2411 38.3617 36.3919C38.0622 36.6964 37.8959 37.1073 37.8995 37.5344C37.903 37.9615 38.076 38.3696 38.3805 38.6691C38.685 38.9686 39.096 39.1349 39.5231 39.1313Z" fill="url(#paint27_linear_211_75)"></path><path fill-rule="evenodd" clip-rule="evenodd" d="M24.7395 37.7846C24.7343 37.3584 24.5605 36.9516 24.2559 36.6534C23.9514 36.3552 23.5411 36.19 23.1149 36.1938C22.7071 36.2211 22.3248 36.4023 22.0456 36.7008C21.7664 36.9993 21.6111 37.3928 21.6111 37.8015C21.6111 38.2102 21.7664 38.6037 22.0456 38.9022C22.3248 39.2007 22.7071 39.3819 23.1149 39.4092C23.3285 39.4101 23.5402 39.3688 23.7377 39.2874C23.9352 39.2061 24.1147 39.0865 24.2658 38.9355C24.4168 38.7844 24.5364 38.6049 24.6178 38.4074C24.6991 38.2099 24.7404 37.9982 24.7395 37.7846Z" fill="url(#paint28_linear_211_75)"></path><path fill-rule="evenodd" clip-rule="evenodd" d="M17.8615 39.4092C18.2064 39.4068 18.5414 39.2939 18.8173 39.087C19.0932 38.8801 19.2955 38.5902 19.3943 38.2598C19.4932 37.9294 19.4834 37.576 19.3665 37.2515C19.2495 36.9271 19.0316 36.6487 18.7447 36.4574C18.4577 36.2661 18.117 36.1718 17.7725 36.1885C17.4281 36.2053 17.0981 36.3321 16.831 36.5503C16.564 36.7685 16.374 37.0667 16.2891 37.4009C16.2041 37.7352 16.2286 38.0879 16.359 38.4071C16.4815 38.7046 16.6899 38.9587 16.9575 39.1372C17.2251 39.3157 17.5399 39.4104 17.8615 39.4092V39.4092Z" fill="url(#paint29_linear_211_75)"></path><path fill-rule="evenodd" clip-rule="evenodd" d="M11.241 37.7846C11.241 38.1071 11.3366 38.4224 11.5157 38.6905C11.6949 38.9587 11.9495 39.1677 12.2474 39.2912C12.5454 39.4146 12.8732 39.447 13.1895 39.3841C13.5058 39.3213 13.7964 39.1661 14.0245 38.9381C14.2526 38.7102 14.408 38.4197 14.471 38.1034C14.5341 37.7871 14.5019 37.4593 14.3787 37.1613C14.2554 36.8633 14.0465 36.6085 13.7785 36.4292C13.5104 36.2499 13.1953 36.1541 12.8728 36.1539C12.6581 36.1521 12.4453 36.1931 12.2466 36.2744C12.0479 36.3557 11.8675 36.4758 11.7157 36.6275C11.5639 36.7793 11.4438 36.9598 11.3625 37.1585C11.2812 37.3571 11.2402 37.57 11.242 37.7846H11.241Z" fill="url(#paint30_linear_211_75)"></path><path fill-rule="evenodd" clip-rule="evenodd" d="M16.8123 41.2769C16.8105 41.0653 16.7671 40.8562 16.6844 40.6614C16.6017 40.4666 16.4815 40.29 16.3306 40.1416C16.1797 39.9933 16.0011 39.8761 15.8049 39.7969C15.6087 39.7176 15.3988 39.6777 15.1872 39.6795C14.9756 39.6813 14.7665 39.7248 14.5717 39.8075C14.3769 39.8901 14.2003 40.0103 14.0519 40.1612C13.9036 40.3121 13.7864 40.4908 13.7071 40.687C13.6278 40.8832 13.588 41.093 13.5898 41.3046C13.5935 41.732 13.7667 42.1403 14.0715 42.4399C14.3763 42.7395 14.7876 42.9057 15.2149 42.9021C15.6422 42.8984 16.0506 42.7251 16.3502 42.4203C16.6498 42.1156 16.816 41.7043 16.8123 41.2769V41.2769Z" fill="url(#paint31_linear_211_75)"></path><path fill-rule="evenodd" clip-rule="evenodd" d="M9.06152 39.9641C8.8504 39.9777 8.64403 40.0329 8.45421 40.1263C8.26439 40.2197 8.09482 40.3496 7.9552 40.5086C7.81558 40.6675 7.70864 40.8524 7.64047 41.0527C7.57231 41.253 7.54426 41.4647 7.55793 41.6759C7.5716 41.887 7.62672 42.0933 7.72015 42.2832C7.81357 42.473 7.94347 42.6426 8.10243 42.7822C8.26138 42.9218 8.44628 43.0287 8.64657 43.0969C8.84685 43.1651 9.0586 43.1931 9.26973 43.1794C9.69611 43.1518 10.0941 42.956 10.376 42.635C10.658 42.3139 10.8009 41.894 10.7733 41.4677C10.7457 41.0413 10.5498 40.6433 10.2288 40.3613C9.9078 40.0794 9.48791 39.9365 9.06152 39.9641V39.9641Z" fill="url(#paint32_linear_211_75)"></path><path fill-rule="evenodd" clip-rule="evenodd" d="M4.46561 38.0964C4.03854 38.1 3.63043 38.2732 3.33104 38.5778C3.03166 38.8824 2.86553 39.2934 2.8692 39.7205C2.87287 40.1475 3.04605 40.5557 3.35062 40.855C3.6552 41.1544 4.06624 41.3206 4.4933 41.3169C4.92037 41.3132 5.32849 41.14 5.62787 40.8355C5.92726 40.5309 6.09339 40.1199 6.08971 39.6928C6.08604 39.2657 5.91287 38.8576 5.60829 38.5582C5.30371 38.2588 4.89268 38.0927 4.46561 38.0964V38.0964Z" fill="url(#paint33_linear_211_75)"></path><path fill-rule="evenodd" clip-rule="evenodd" d="M20.2041 40.1744C19.8824 40.1635 19.5648 40.2493 19.2923 40.4206C19.0198 40.5919 18.8049 40.8409 18.6752 41.1355C18.5455 41.43 18.507 41.7567 18.5646 42.0734C18.6223 42.3901 18.7735 42.6822 18.9987 42.9121C19.2239 43.1421 19.5128 43.2993 19.8282 43.3636C20.1436 43.4278 20.471 43.3962 20.7682 43.2726C21.0655 43.1491 21.3189 42.9394 21.4958 42.6705C21.6728 42.4017 21.7651 42.086 21.761 41.7641C21.759 41.3488 21.5954 40.9505 21.3047 40.6537C21.0141 40.357 20.6193 40.185 20.2041 40.1744V40.1744Z" fill="url(#paint34_linear_211_75)"></path><path fill-rule="evenodd" clip-rule="evenodd" d="M23.6698 39.721C23.4563 39.7316 23.2472 39.7845 23.0544 39.8767C22.8617 39.9689 22.6892 40.0986 22.547 40.2581C22.4048 40.4176 22.2957 40.6037 22.2262 40.8058C22.1566 41.0078 22.128 41.2217 22.1418 41.4349C22.1557 41.6481 22.2118 41.8565 22.307 42.0478C22.4022 42.2391 22.5344 42.4096 22.6961 42.5493C22.8577 42.689 23.0456 42.7952 23.2486 42.8617C23.4517 42.9281 23.666 42.9535 23.879 42.9364C24.3055 42.9086 24.7035 42.7126 24.9855 42.3914C25.2675 42.0701 25.4103 41.6501 25.3826 41.2235C25.3548 40.797 25.1588 40.399 24.8376 40.117C24.5164 39.835 24.0963 39.6922 23.6698 39.72V39.721Z" fill="url(#paint35_linear_211_75)"></path><path fill-rule="evenodd" clip-rule="evenodd" d="M17.0564 44.0123C16.845 44.0096 16.6351 44.0486 16.4387 44.1271C16.2423 44.2055 16.0632 44.3218 15.9118 44.4695C15.7604 44.6171 15.6395 44.7931 15.5561 44.9874C15.4727 45.1818 15.4284 45.3906 15.4257 45.6021C15.423 45.8135 15.462 46.0235 15.5404 46.2199C15.6188 46.4163 15.7352 46.5953 15.8828 46.7467C16.0304 46.8981 16.2064 47.019 16.4008 47.1024C16.5951 47.1858 16.8039 47.2302 17.0154 47.2328C17.4425 47.2383 17.8542 47.0739 18.16 46.7757C18.4659 46.4776 18.6407 46.0702 18.6462 45.6431C18.6516 45.216 18.4872 44.8043 18.1891 44.4985C17.8909 44.1926 17.4835 44.0178 17.0564 44.0123V44.0123Z" fill="url(#paint36_linear_211_75)"></path><path fill-rule="evenodd" clip-rule="evenodd" d="M12.0738 45.4266C11.9008 45.4266 11.7295 45.4608 11.5698 45.5272C11.41 45.5937 11.265 45.691 11.143 45.8137C11.021 45.9364 10.9244 46.0819 10.8589 46.242C10.7933 46.4021 10.7601 46.5736 10.761 46.7466C10.7608 47.0987 10.8978 47.437 11.1429 47.6897C11.388 47.9425 11.7219 48.0898 12.0738 48.1005C12.4329 48.1005 12.7772 47.9578 13.0311 47.704C13.285 47.4501 13.4277 47.1057 13.4277 46.7466C13.4188 46.3935 13.2723 46.0578 13.0194 45.8111C12.7664 45.5645 12.4271 45.4265 12.0738 45.4266Z" fill="url(#paint37_linear_211_75)"></path><path fill-rule="evenodd" clip-rule="evenodd" d="M27.5754 38.9898C27.3638 38.9924 27.1549 39.0368 26.9605 39.1202C26.7661 39.2037 26.5901 39.3246 26.4424 39.476C26.1442 39.782 25.9797 40.1938 25.9851 40.621C25.9906 41.0482 26.1655 41.4558 26.4714 41.754C26.7773 42.0522 27.1892 42.2167 27.6164 42.2113C28.0436 42.2059 28.4511 42.0309 28.7494 41.725C29.0476 41.4191 29.2121 41.0072 29.2067 40.58C29.2012 40.1528 29.0263 39.7453 28.7204 39.447C28.4144 39.1488 28.0026 38.9843 27.5754 38.9898V38.9898Z" fill="url(#paint38_linear_211_75)"></path><path fill-rule="evenodd" clip-rule="evenodd" d="M26.5057 42.2995C26.1829 42.2982 25.867 42.3928 25.598 42.5713C25.329 42.7497 25.1191 43.004 24.9947 43.3019C24.8703 43.5997 24.8371 43.9278 24.8994 44.2446C24.9616 44.5613 25.1164 44.8525 25.3442 45.0812C25.5721 45.3098 25.8626 45.4658 26.1791 45.5292C26.4956 45.5926 26.8238 45.5607 27.1222 45.4374C27.4205 45.3142 27.6756 45.1052 27.855 44.8369C28.0345 44.5686 28.1303 44.253 28.1303 43.9302C28.1313 43.7163 28.0899 43.5043 28.0087 43.3065C27.9275 43.1086 27.8079 42.9287 27.657 42.7772C27.506 42.6256 27.3266 42.5054 27.129 42.4234C26.9314 42.3414 26.7196 42.2993 26.5057 42.2995V42.2995Z" fill="url(#paint39_linear_211_75)"></path><path fill-rule="evenodd" clip-rule="evenodd" d="M31.5621 42.1775C31.7777 42.1948 31.9946 42.169 32.2001 42.1017C32.4057 42.0344 32.5958 41.9268 32.7594 41.7853C32.923 41.6438 33.0568 41.4712 33.153 41.2775C33.2492 41.0838 33.306 40.8729 33.3199 40.6571C33.3339 40.4412 33.3047 40.2248 33.2342 40.0203C33.1637 39.8158 33.0532 39.6274 32.9092 39.466C32.7652 39.3047 32.5905 39.1736 32.3953 39.0804C32.2002 38.9871 31.9884 38.9337 31.7724 38.9231C31.3448 38.9021 30.9261 39.0502 30.6067 39.3352C30.2873 39.6203 30.0928 40.0195 30.0652 40.4468C30.0376 40.874 30.1791 41.2949 30.4591 41.6187C30.7392 41.9425 31.1354 42.1432 31.5621 42.1775Z" fill="url(#paint40_linear_211_75)"></path><path fill-rule="evenodd" clip-rule="evenodd" d="M34.0134 40.8308C34.0107 41.1509 34.1036 41.4646 34.28 41.7318C34.4564 41.9989 34.7084 42.2075 35.0038 42.3308C35.2992 42.4542 35.6247 42.4867 35.9387 42.4243C36.2528 42.3619 36.5411 42.2073 36.7669 41.9804C36.9927 41.7534 37.1457 41.4643 37.2065 41.15C37.2673 40.8356 37.2331 40.5103 37.1083 40.2155C36.9834 39.9207 36.7735 39.6698 36.5055 39.4948C36.2374 39.3197 35.9232 39.2285 35.6031 39.2328C35.1807 39.235 34.7764 39.4043 34.4785 39.7037C34.1806 40.0032 34.0134 40.4084 34.0134 40.8308V40.8308Z" fill="url(#paint41_linear_211_75)"></path><path fill-rule="evenodd" clip-rule="evenodd" d="M37.3713 40.8308C37.3751 41.1754 37.4893 41.5098 37.6972 41.7847C37.905 42.0596 38.1956 42.2607 38.5261 42.3583C38.8567 42.4559 39.2098 42.4449 39.5337 42.327C39.8575 42.2091 40.1351 41.9904 40.3255 41.7031C40.5159 41.4158 40.6092 41.0751 40.5916 40.7309C40.5741 40.3866 40.4466 40.0571 40.2279 39.7907C40.0093 39.5243 39.7109 39.335 39.3768 39.2507C39.0426 39.1663 38.6902 39.1913 38.3713 39.3221C38.0735 39.4454 37.8192 39.6547 37.6411 39.9233C37.4629 40.1918 37.369 40.5075 37.3713 40.8298V40.8308Z" fill="url(#paint42_linear_211_75)"></path><path fill-rule="evenodd" clip-rule="evenodd" d="M40.6267 40.8307C40.6294 41.0422 40.6737 41.2511 40.7571 41.4454C40.8406 41.6397 40.9614 41.8157 41.1129 41.9633C41.2643 42.111 41.4433 42.2273 41.6397 42.3057C41.8361 42.3842 42.046 42.4232 42.2575 42.4205C42.4689 42.4178 42.6778 42.3735 42.8721 42.29C43.0665 42.2066 43.2425 42.0858 43.3901 41.9343C43.5377 41.7829 43.6541 41.6039 43.7325 41.4075C43.8109 41.2111 43.8499 41.0012 43.8472 40.7897C43.8418 40.3626 43.6669 39.9552 43.3611 39.6571C43.0553 39.359 42.6435 39.1945 42.2165 39.2C41.7894 39.2054 41.382 39.3803 41.0838 39.6861C40.7857 39.9919 40.6213 40.4037 40.6267 40.8307V40.8307Z" fill="url(#paint43_linear_211_75)"></path><path fill-rule="evenodd" clip-rule="evenodd" d="M34.1077 42.1774C33.8961 42.1801 33.6872 42.2244 33.4927 42.3079C33.2982 42.3913 33.1221 42.5123 32.9744 42.6638C32.6761 42.9698 32.5115 43.3818 32.517 43.8092C32.5224 44.2365 32.6974 44.6442 33.0034 44.9425C33.3094 45.2408 33.7214 45.4054 34.1488 45.3999C34.5761 45.3945 34.9838 45.2195 35.2821 44.9135C35.5804 44.6075 35.745 44.1955 35.7395 43.7681C35.7341 43.3408 35.5591 42.9331 35.2531 42.6348C34.9471 42.3365 34.5351 42.1719 34.1077 42.1774V42.1774Z" fill="url(#paint44_linear_211_75)"></path><path fill-rule="evenodd" clip-rule="evenodd" d="M30.3846 42.3743C30.1731 42.3761 29.9641 42.4196 29.7694 42.5022C29.5747 42.5848 29.3982 42.7049 29.25 42.8557C29.1017 43.0066 28.9847 43.1851 28.9054 43.3812C28.8262 43.5772 28.7863 43.787 28.7881 43.9984C28.79 44.2099 28.8334 44.4189 28.916 44.6136C28.9986 44.8083 29.1188 44.9848 29.2696 45.133C29.4204 45.2812 29.5989 45.3983 29.795 45.4776C29.991 45.5568 30.2008 45.5967 30.4122 45.5948C30.8393 45.5912 31.2474 45.418 31.5468 45.1134C31.8462 44.8088 32.0123 44.3978 32.0087 43.9707C32.005 43.5437 31.8318 43.1356 31.5272 42.8362C31.2227 42.5368 30.8116 42.3707 30.3846 42.3743Z" fill="url(#paint45_linear_211_75)"></path><path fill-rule="evenodd" clip-rule="evenodd" d="M37.4389 42.1774C37.0116 42.1719 36.5996 42.3365 36.2936 42.6348C35.9876 42.9331 35.8126 43.3408 35.8071 43.7681C35.8017 44.1955 35.9662 44.6075 36.2646 44.9135C36.5629 45.2195 36.9706 45.3945 37.3979 45.3999C37.8252 45.4054 38.2372 45.2408 38.5433 44.9425C38.8493 44.6442 39.0243 44.2365 39.0297 43.8092C39.0351 43.3818 38.8706 42.9698 38.5723 42.6638C38.2739 42.3578 37.8663 42.1828 37.4389 42.1774V42.1774Z" fill="url(#paint46_linear_211_75)"></path><path fill-rule="evenodd" clip-rule="evenodd" d="M40.6944 42.1774C40.4829 42.1747 40.2729 42.2137 40.0764 42.2921C39.88 42.3706 39.7009 42.487 39.5494 42.6347C39.2435 42.9329 39.0686 43.3404 39.0631 43.7676C39.0577 44.1948 39.2222 44.6067 39.5204 44.9126C39.8186 45.2186 40.2262 45.3935 40.6534 45.3989C41.0804 45.4044 41.4922 45.2399 41.798 44.9418C42.1038 44.6437 42.2787 44.2362 42.2841 43.8092C42.2896 43.3821 42.1252 42.9704 41.827 42.6645C41.5289 42.3587 41.1215 42.1838 40.6944 42.1784V42.1774Z" fill="url(#paint47_linear_211_75)"></path><path fill-rule="evenodd" clip-rule="evenodd" d="M43.9435 42.1774C43.732 42.1747 43.522 42.2137 43.3256 42.2921C43.1291 42.3706 42.95 42.487 42.7986 42.6347C42.6471 42.7823 42.5262 42.9584 42.4427 43.1528C42.3593 43.3472 42.315 43.5561 42.3123 43.7676C42.3096 43.9792 42.3486 44.1892 42.427 44.3856C42.5055 44.5821 42.6219 44.7611 42.7695 44.9126C42.9172 45.0641 43.0933 45.185 43.2877 45.2685C43.4821 45.3519 43.691 45.3962 43.9025 45.3989C44.3296 45.4044 44.7413 45.2399 45.0472 44.9418C45.353 44.6437 45.5278 44.2362 45.5333 43.8092C45.5387 43.3821 45.3743 42.9704 45.0762 42.6645C44.778 42.3587 44.3706 42.1838 43.9435 42.1784V42.1774Z" fill="url(#paint48_linear_211_75)"></path><path fill-rule="evenodd" clip-rule="evenodd" d="M3.07789 44.4923C2.79772 44.4923 2.52902 44.6036 2.3309 44.8017C2.13278 44.9998 2.02148 45.2685 2.02148 45.5487C2.02148 45.8289 2.13278 46.0976 2.3309 46.2957C2.52902 46.4938 2.79772 46.6051 3.07789 46.6051C3.35807 46.6051 3.62677 46.4938 3.82489 46.2957C4.023 46.0976 4.1343 45.8289 4.1343 45.5487C4.1343 45.2685 4.023 44.9998 3.82489 44.8017C3.62677 44.6036 3.35807 44.4923 3.07789 44.4923Z" fill="url(#paint49_linear_211_75)"></path><path opacity="0.62" d="M4.11282 45.5354C4.11553 45.6738 4.09084 45.8113 4.04016 45.9401C3.98948 46.0689 3.91382 46.1864 3.81753 46.2859C3.72124 46.3853 3.60623 46.4647 3.47912 46.5195C3.35202 46.5743 3.21532 46.6034 3.07692 46.6051C2.79674 46.6051 2.52804 46.4938 2.32992 46.2957C2.13181 46.0976 2.02051 45.8289 2.02051 45.5487C2.02051 45.2685 2.13181 44.9998 2.32992 44.8017C2.52804 44.6036 2.79674 44.4923 3.07692 44.4923C3.3524 44.4939 3.61602 44.6046 3.81015 44.8001C4.00427 44.9955 4.11309 45.2599 4.11282 45.5354V45.5354Z" fill="url(#paint50_linear_211_75)"></path><path opacity="0.62" d="M26.2616 14.0789C26.2596 14.3873 26.1829 14.6906 26.038 14.9628C25.8931 15.235 25.6844 15.4681 25.4298 15.642C25.3339 15.6873 25.2413 15.7394 25.1528 15.7979C24.8946 15.9176 24.6127 15.9779 24.328 15.9742C24.0434 15.9705 23.7632 15.9029 23.5081 15.7765C23.253 15.6501 23.0295 15.4681 22.8541 15.2439C22.6787 15.0196 22.5559 14.7589 22.4947 14.4809C22.4335 14.2028 22.4354 13.9146 22.5004 13.6375C22.5654 13.3603 22.6918 13.1012 22.8702 12.8794C23.0486 12.6575 23.2745 12.4786 23.5313 12.3557C23.7881 12.2327 24.0692 12.169 24.3539 12.1692C24.859 12.173 25.3424 12.3754 25.6994 12.7328C26.0564 13.0902 26.2583 13.5738 26.2616 14.0789V14.0789Z" fill="url(#paint51_linear_211_75)"></path><path opacity="0.62" d="M22.3836 20.6512C22.3883 20.9765 22.3084 21.2974 22.1516 21.5824C21.9948 21.8674 21.7665 22.1067 21.4892 22.2768C21.2119 22.4469 20.8952 22.542 20.57 22.5526C20.2449 22.5632 19.9226 22.489 19.6348 22.3374L19.5066 22.2553C19.2255 22.0829 18.9944 21.8399 18.8363 21.5505C18.6782 21.2611 18.5987 20.9354 18.6055 20.6056C18.6124 20.2759 18.7054 19.9538 18.8753 19.6712C19.0453 19.3886 19.2863 19.1554 19.5743 18.9948C19.8623 18.8342 20.1874 18.7518 20.5171 18.7558C20.8469 18.7597 21.1698 18.85 21.4539 19.0175C21.738 19.1849 21.9733 19.4239 22.1363 19.7105C22.2994 19.9971 22.3847 20.3214 22.3836 20.6512V20.6512Z" fill="url(#paint52_linear_211_75)"></path><path opacity="0.62" d="M24.2861 17.3692C24.2805 17.872 24.0783 18.3525 23.7226 18.708C23.367 19.0634 22.8863 19.2654 22.3836 19.2708C21.8935 19.248 21.431 19.0373 21.0922 18.6824C20.7534 18.3275 20.5643 17.8558 20.5643 17.3651C20.5643 16.8745 20.7534 16.4027 21.0922 16.0478C21.431 15.6929 21.8935 15.4822 22.3836 15.4595C22.8877 15.4646 23.3696 15.6675 23.7254 16.0245C24.0813 16.3816 24.2827 16.8641 24.2861 17.3682V17.3692Z" fill="url(#paint53_linear_211_75)"></path><path opacity="0.62" d="M28.1302 17.3693C28.1313 17.696 28.0479 18.0174 27.8882 18.3024C27.7285 18.5874 27.4978 18.8263 27.2185 18.9958C26.9393 19.1654 26.6209 19.2599 26.2944 19.2701C25.9678 19.2804 25.6442 19.2061 25.3548 19.0544L25.2133 18.9723C24.9459 18.8061 24.7244 18.5757 24.5688 18.3021C24.4132 18.0284 24.3285 17.7202 24.3224 17.4055C24.3163 17.0907 24.3889 16.7795 24.5338 16.5C24.6786 16.2205 24.8911 15.9816 25.1517 15.8052C25.2492 15.7621 25.3425 15.7098 25.4287 15.6493C25.6663 15.5356 25.9253 15.4734 26.1887 15.4669C26.4521 15.4603 26.7139 15.5096 26.9569 15.6113C27.3042 15.7554 27.601 15.9993 27.8098 16.312C28.0186 16.6247 28.1301 16.9922 28.1302 17.3682V17.3693Z" fill="url(#paint54_linear_211_75)"></path><path opacity="0.62" d="M28.1642 22.5538C27.8934 22.5538 27.6247 22.4943 27.3795 22.3774C27.6366 22.5501 27.8471 22.7834 27.9928 23.0567C28.1384 23.33 28.2145 23.6349 28.2145 23.9446C28.2145 24.2543 28.1384 24.5592 27.9928 24.8325C27.8471 25.1058 27.6366 25.3391 27.3795 25.5118C27.2993 25.5503 27.2224 25.5956 27.1498 25.6472C26.8943 25.7721 26.6137 25.837 26.3293 25.8369C26.0318 25.8369 25.7375 25.7672 25.4708 25.6338L25.2677 25.519C25.0363 25.3634 24.842 25.1587 24.6987 24.9195C24.5554 24.6802 24.4666 24.4123 24.4387 24.1348C24.4108 23.8574 24.4444 23.5771 24.5372 23.3142C24.63 23.0512 24.7796 22.8119 24.9754 22.6133C25.2469 22.3419 25.5953 22.1607 25.9733 22.0943C26.3513 22.0279 26.7406 22.0795 27.0883 22.242C26.8149 22.0598 26.5935 21.8099 26.4454 21.5167C26.2973 21.2235 26.2277 20.8969 26.2432 20.5688C26.2588 20.2407 26.3591 19.9222 26.5343 19.6443C26.7095 19.3665 26.9536 19.1387 27.243 18.9832C27.5323 18.8277 27.857 18.7497 28.1854 18.7569C28.5138 18.7641 28.8348 18.8563 29.117 19.0243C29.3993 19.1924 29.6332 19.4306 29.796 19.7159C29.9589 20.0012 30.045 20.3238 30.0462 20.6523C30.0481 21.1538 29.8511 21.6356 29.4983 21.9921C29.1455 22.3486 28.6657 22.5506 28.1642 22.5538V22.5538Z" fill="url(#paint55_linear_211_75)"></path><path opacity="0.62" d="M26.9867 28.8359C26.1466 29.4837 25.2959 30.1177 24.4349 30.7374C24.4315 30.6835 24.4315 30.6294 24.4349 30.5754C24.434 30.3298 24.4816 30.0865 24.5751 29.8594C24.6686 29.6323 24.8061 29.426 24.9798 29.2523C25.1534 29.0786 25.3596 28.9409 25.5867 28.8473C25.8137 28.7536 26.057 28.7059 26.3026 28.7067C26.5364 28.7087 26.7682 28.7518 26.9867 28.8359V28.8359Z" fill="url(#paint56_linear_211_75)"></path><path opacity="0.62" d="M32.0359 23.9416C32.0359 24.2882 31.9405 24.6277 31.759 24.9231C31.3528 25.2882 30.9261 25.6472 30.4933 26.0195C30.5856 25.9067 30.6892 25.8041 30.8041 25.7149C30.5887 25.801 30.36 25.8451 30.1272 25.8431C29.7508 25.8431 29.383 25.7315 29.0701 25.5224C28.7572 25.3133 28.5133 25.0161 28.3693 24.6684C28.2254 24.3207 28.1877 23.9381 28.2612 23.569C28.3347 23.1999 28.516 22.8609 28.7822 22.5948C29.0484 22.3288 29.3875 22.1477 29.7566 22.0744C30.1258 22.0011 30.5083 22.0389 30.856 22.1831C31.2036 22.3272 31.5007 22.5713 31.7096 22.8843C31.9185 23.1973 32.0299 23.5652 32.0297 23.9416H32.0369H32.0359Z" fill="url(#paint57_linear_211_75)"></path><path opacity="0.62" d="M29.9036 26.5077C28.9929 27.2723 28.0655 28.0168 27.1221 28.7406C26.8693 28.5702 26.6622 28.3403 26.519 28.0711C26.3759 27.802 26.301 27.5018 26.301 27.197C26.301 26.8921 26.3759 26.5919 26.519 26.3228C26.6622 26.0536 26.8693 25.8238 27.1221 25.6534C27.2009 25.6126 27.2776 25.5677 27.3518 25.519C27.5826 25.4058 27.8344 25.3416 28.0913 25.3305C28.3481 25.3194 28.6045 25.3616 28.8442 25.4545C29.084 25.5474 29.3019 25.6889 29.4842 25.8702C29.6665 26.0515 29.8093 26.2685 29.9036 26.5077Z" fill="url(#paint58_linear_211_75)"></path><path opacity="0.62" d="M26.2616 27.1907C26.2674 27.4398 26.2234 27.6874 26.1321 27.9192C26.0409 28.151 25.9042 28.3621 25.7301 28.5403C25.5561 28.7185 25.3482 28.8601 25.1186 28.9568C24.889 29.0534 24.6425 29.1032 24.3934 29.1032C24.1443 29.1032 23.8977 29.0534 23.6682 28.9568C23.4386 28.8601 23.2307 28.7185 23.0566 28.5403C22.8825 28.3621 22.7459 28.151 22.6546 27.9192C22.5633 27.6874 22.5193 27.4398 22.5252 27.1907C22.5287 26.6962 22.7267 26.2229 23.0764 25.8732C23.4261 25.5235 23.8994 25.3255 24.3939 25.322C24.6852 25.322 24.9734 25.3928 25.2329 25.5251L25.4359 25.641C25.6901 25.8116 25.8984 26.0421 26.0426 26.3122C26.1867 26.5822 26.2623 26.8836 26.2626 27.1897L26.2616 27.1907Z" fill="url(#paint59_linear_211_75)"></path><path opacity="0.62" d="M24.319 22.5538C24.0495 22.5549 23.7833 22.4946 23.5406 22.3774C23.7925 22.5528 23.9981 22.7868 24.1396 23.0593C24.2811 23.3318 24.3543 23.6345 24.3529 23.9415C24.3538 24.2529 24.2779 24.5597 24.1321 24.8348C23.9862 25.1099 23.7748 25.3449 23.5165 25.5189C23.2583 25.6928 22.9612 25.8005 22.6514 25.8324C22.3417 25.8642 22.0288 25.8193 21.7406 25.7015C22.0868 25.9667 22.3277 26.3463 22.4202 26.7725C22.5127 27.1987 22.4509 27.6439 22.2458 28.0289C22.0407 28.4138 21.7056 28.7133 21.3002 28.8742C20.8948 29.0351 20.4454 29.0469 20.0322 28.9074C19.619 28.7678 19.2687 28.4862 19.0437 28.1125C18.8188 27.7388 18.7339 27.2974 18.804 26.8669C18.8742 26.4365 19.0949 26.0449 19.4268 25.7619C19.7587 25.479 20.1803 25.3231 20.6165 25.322C20.8483 25.3271 21.078 25.3733 21.2934 25.4574C20.9823 25.2151 20.7545 24.8819 20.6417 24.504C20.529 24.1262 20.5369 23.7226 20.6643 23.3495C20.7917 22.9763 21.0324 22.6522 21.3527 22.4223C21.673 22.1923 22.057 22.068 22.4513 22.0666C22.7262 22.0687 22.999 22.1282 23.2503 22.242C22.9136 22.0144 22.659 21.6847 22.524 21.3014C22.389 20.9181 22.3808 20.5015 22.5006 20.1132C22.6203 19.7249 22.8617 19.3853 23.1891 19.1446C23.5165 18.9039 23.9127 18.7748 24.319 18.7764C24.6308 18.7764 24.9385 18.8523 25.2134 19L25.3549 19.081C25.7003 19.3038 25.9642 19.6325 26.1071 20.0179C26.25 20.4033 26.2642 20.8246 26.1475 21.2187C26.0309 21.6128 25.7896 21.9585 25.46 22.204C25.1304 22.4495 24.73 22.5816 24.319 22.5805V22.5538V22.5538Z" fill="url(#paint60_linear_211_75)"></path><path opacity="0.62" d="M18.6133 25.8431C18.4173 25.8408 18.2229 25.8065 18.0379 25.7416C18.3768 26.0189 18.6067 26.4072 18.6869 26.8377C18.767 27.2683 18.6923 27.7133 18.476 28.094C18.2596 28.4747 17.9156 28.7667 17.5047 28.9182C17.0938 29.0697 16.6426 29.071 16.2309 28.9218C15.8191 28.7727 15.4734 28.4827 15.2549 28.1032C15.0364 27.7237 14.9592 27.2791 15.0369 26.8481C15.1146 26.4172 15.3423 26.0276 15.6796 25.7483C16.0169 25.469 16.4421 25.318 16.88 25.3221C17.0718 25.3252 17.2615 25.359 17.442 25.4246C17.0981 25.1248 16.8733 24.7114 16.8088 24.2597C16.7442 23.808 16.8441 23.3482 17.0903 22.964C17.3364 22.5798 17.7125 22.2969 18.1498 22.1668C18.5872 22.0368 19.0567 22.0682 19.4728 22.2554L19.602 22.3375C19.8729 22.508 20.0958 22.7448 20.2496 23.0255C20.4035 23.3062 20.4831 23.6215 20.481 23.9416C20.4759 24.4385 20.2785 24.9141 19.9303 25.2687C19.5821 25.6232 19.1101 25.8291 18.6133 25.8431Z" fill="url(#paint61_linear_211_75)"></path><path opacity="0.62" d="M20.6165 30.5815C20.6192 30.8247 20.5738 31.0661 20.4831 31.2918C20.3923 31.5174 20.2579 31.723 20.0875 31.8966C19.9171 32.0702 19.7142 32.2084 19.4902 32.3035C19.2663 32.3985 19.0258 32.4483 18.7826 32.4502C18.5063 32.4506 18.2333 32.3897 17.9833 32.2719C17.7333 32.1541 17.5126 31.9823 17.337 31.7689C17.1614 31.5555 17.0353 31.3058 16.9678 31.0378C16.9003 30.7698 16.8931 30.4902 16.9467 30.2191C17.0003 29.948 17.1134 29.6922 17.2777 29.47C17.4421 29.2479 17.6537 29.0649 17.8973 28.9344C18.1408 28.8039 18.4103 28.729 18.6863 28.7151C18.9623 28.7013 19.238 28.7488 19.4934 28.8543C19.8326 28.9958 20.1213 29.2363 20.3216 29.5445C20.522 29.8526 20.6248 30.214 20.6165 30.5815Z" fill="url(#paint62_linear_211_75)"></path><path opacity="0.62" d="M24.3949 30.5816V30.7846C23.798 31.2113 23.1887 31.6441 22.559 32.0769L22.0995 32.3959C21.6561 32.2876 21.2677 32.0207 21.0077 31.6456C20.7476 31.2705 20.634 30.8131 20.6881 30.3599C20.7423 29.9067 20.9605 29.4891 21.3016 29.1858C21.6427 28.8825 22.0831 28.7146 22.5395 28.7139C23.0329 28.716 23.5054 28.9139 23.853 29.2641C24.2007 29.6143 24.3952 30.0881 24.3938 30.5816H24.3949Z" fill="url(#paint63_linear_211_75)"></path><path opacity="0.62" d="M20.9139 33.2153C20.1631 33.7435 19.4318 34.2574 18.7416 34.7589C18.7773 34.5122 18.8627 34.2754 18.9926 34.0627C19.1226 33.85 19.2944 33.6659 19.4976 33.5216C19.7008 33.3772 19.9312 33.2757 20.1748 33.223C20.4185 33.1704 20.6702 33.1678 20.9149 33.2153H20.9139Z" fill="url(#paint64_linear_211_75)"></path><path opacity="0.62" d="M18.5794 34.1487C18.5794 34.4564 18.5035 34.76 18.3558 35.0298L17.043 35.9836C16.9325 35.9936 16.8213 35.9936 16.7107 35.9836C16.217 35.9783 15.7451 35.7798 15.396 35.4307C15.0468 35.0816 14.8484 34.6096 14.843 34.1159C14.8535 33.6238 15.0536 33.1546 15.4016 32.8065C15.7496 32.4583 16.2186 32.2579 16.7107 32.2472C17.2106 32.2523 17.6881 32.4555 18.0384 32.8122C18.3887 33.1688 18.5833 33.6498 18.5794 34.1498V34.1487Z" fill="url(#paint65_linear_211_75)"></path><path opacity="0.62" d="M16.3662 30.5816C16.3676 30.9521 16.2592 31.3147 16.0547 31.6236C15.8502 31.9326 15.5587 32.174 15.2171 32.3174C14.8754 32.4608 14.499 32.4998 14.1352 32.4294C13.7715 32.3591 13.4367 32.1825 13.1732 31.922C12.9097 31.6615 12.7293 31.3288 12.6548 30.9659C12.5803 30.603 12.6149 30.2261 12.7544 29.8828C12.8939 29.5396 13.132 29.2454 13.4385 29.0373C13.7451 28.8293 14.1065 28.7167 14.477 28.7139C14.9749 28.712 15.4533 28.9074 15.8073 29.2575C16.1614 29.6076 16.3624 30.0837 16.3662 30.5816V30.5816Z" fill="url(#paint66_linear_211_75)"></path><path opacity="0.62" d="M12.6626 33.8717C12.6626 34.3672 12.4657 34.8424 12.1154 35.1928C11.765 35.5431 11.2898 35.74 10.7944 35.74C10.2989 35.74 9.82369 35.5431 9.47333 35.1928C9.12298 34.8424 8.92615 34.3672 8.92615 33.8717C8.92615 33.3763 9.12298 32.9011 9.47333 32.5507C9.82369 32.2004 10.2989 32.0035 10.7944 32.0035C11.2898 32.0035 11.765 32.2004 12.1154 32.5507C12.4657 32.9011 12.6626 33.3763 12.6626 33.8717V33.8717Z" fill="url(#paint67_linear_211_75)"></path><path opacity="0.62" d="M14.4769 37.7846V37.8861C13.7999 38.3866 13.1774 38.881 12.5815 39.3476C12.2082 39.2875 11.868 39.0979 11.6205 38.8121C11.373 38.5263 11.2339 38.1626 11.2276 37.7846C11.2108 37.5604 11.2403 37.3352 11.3145 37.1231C11.3887 36.9109 11.5058 36.7163 11.6587 36.5515C11.8115 36.3867 11.9967 36.2553 12.2027 36.1654C12.4087 36.0755 12.6311 36.0291 12.8558 36.0291C13.0806 36.0291 13.3029 36.0755 13.5089 36.1654C13.7149 36.2553 13.9002 36.3867 14.053 36.5515C14.2059 36.7163 14.323 36.9109 14.3972 37.1231C14.4714 37.3352 14.5009 37.5604 14.484 37.7846H14.4769V37.7846Z" fill="url(#paint68_linear_211_75)"></path><path opacity="0.62" d="M6.08307 39.6667C6.08691 39.9854 5.99611 40.298 5.82216 40.565C5.64821 40.8321 5.39894 41.0415 5.10591 41.1668C4.81287 41.292 4.48926 41.3275 4.17603 41.2688C3.86281 41.21 3.57406 41.0596 3.34635 40.8367C3.11865 40.6137 2.96222 40.3282 2.89688 40.0163C2.83154 39.7044 2.86022 39.3801 2.9793 39.0845C3.09838 38.7889 3.3025 38.5352 3.56581 38.3557C3.82912 38.1762 4.13978 38.0788 4.45845 38.0759C4.88383 38.0743 5.29277 38.2401 5.5968 38.5376C5.90084 38.8351 6.07552 39.2404 6.08307 39.6657V39.6667Z" fill="url(#paint69_linear_211_75)"></path><path opacity="0.62" d="M10.5712 40.9795C9.79137 41.6279 9.02405 42.2913 8.26969 42.9692C7.96349 42.7927 7.72391 42.5202 7.58788 42.194C7.45186 41.8678 7.42695 41.5058 7.51701 41.164C7.60707 40.8223 7.80708 40.5196 8.0862 40.3027C8.36532 40.0859 8.70803 39.9669 9.06148 39.9641C9.38551 39.9643 9.70213 40.061 9.971 40.2419C10.2399 40.4227 10.4488 40.6795 10.5712 40.9795V40.9795Z" fill="url(#paint70_linear_211_75)"></path></g><defs><linearGradient id="paint0_linear_211_75" x1="23.6082" y1="13.0153" x2="41.2564" y2="38.1087" gradientUnits="userSpaceOnUse"><stop stop-color="#8EC752"></stop><stop offset="0.18" stop-color="#83BE4F"></stop><stop offset="1" stop-color="#539943"></stop></linearGradient><linearGradient id="paint1_linear_211_75" x1="162.268" y1="249.812" x2="261.446" y2="390.838" gradientUnits="userSpaceOnUse"><stop stop-color="#8EC752"></stop><stop offset="0.18" stop-color="#83BE4F"></stop><stop offset="1" stop-color="#539943"></stop></linearGradient><linearGradient id="paint2_linear_211_75" x1="180.531" y1="239.654" x2="279.71" y2="380.718" gradientUnits="userSpaceOnUse"><stop stop-color="#8EC752"></stop><stop offset="0.18" stop-color="#83BE4F"></stop><stop offset="1" stop-color="#539943"></stop></linearGradient><linearGradient id="paint3_linear_211_75" x1="144.574" y1="264.203" x2="243.752" y2="405.268" gradientUnits="userSpaceOnUse"><stop stop-color="#8EC752"></stop><stop offset="0.18" stop-color="#83BE4F"></stop><stop offset="1" stop-color="#539943"></stop></linearGradient><linearGradient id="paint4_linear_211_75" x1="243.478" y1="448.751" x2="438.244" y2="670.357" gradientUnits="userSpaceOnUse"><stop stop-color="#8EC752"></stop><stop offset="0.18" stop-color="#83BE4F"></stop><stop offset="1" stop-color="#539943"></stop></linearGradient><linearGradient id="paint5_linear_211_75" x1="252.23" y1="437.16" x2="443.566" y2="655.171" gradientUnits="userSpaceOnUse"><stop stop-color="#8EC752"></stop><stop offset="0.18" stop-color="#83BE4F"></stop><stop offset="1" stop-color="#539943"></stop></linearGradient><linearGradient id="paint6_linear_211_75" x1="160.621" y1="506.743" x2="355.095" y2="718.379" gradientUnits="userSpaceOnUse"><stop stop-color="#8EC752"></stop><stop offset="0.18" stop-color="#83BE4F"></stop><stop offset="1" stop-color="#539943"></stop></linearGradient><linearGradient id="paint7_linear_211_75" x1="261.842" y1="685.754" x2="547.229" y2="977.399" gradientUnits="userSpaceOnUse"><stop stop-color="#8EC752"></stop><stop offset="0.18" stop-color="#83BE4F"></stop><stop offset="1" stop-color="#539943"></stop></linearGradient><linearGradient id="paint8_linear_211_75" x1="136.875" y1="268.68" x2="236.344" y2="401.814" gradientUnits="userSpaceOnUse"><stop stop-color="#8EC752"></stop><stop offset="0.18" stop-color="#83BE4F"></stop><stop offset="1" stop-color="#539943"></stop></linearGradient><linearGradient id="paint9_linear_211_75" x1="153.793" y1="258.872" x2="253.263" y2="392.006" gradientUnits="userSpaceOnUse"><stop stop-color="#8EC752"></stop><stop offset="0.18" stop-color="#83BE4F"></stop><stop offset="1" stop-color="#539943"></stop></linearGradient><linearGradient id="paint10_linear_211_75" x1="88.3877" y1="303.541" x2="185.801" y2="442.058" gradientUnits="userSpaceOnUse"><stop stop-color="#8EC752"></stop><stop offset="0.18" stop-color="#83BE4F"></stop><stop offset="1" stop-color="#539943"></stop></linearGradient><linearGradient id="paint11_linear_211_75" x1="108.505" y1="292.407" x2="205.919" y2="430.961" gradientUnits="userSpaceOnUse"><stop stop-color="#8EC752"></stop><stop offset="0.18" stop-color="#83BE4F"></stop><stop offset="1" stop-color="#539943"></stop></linearGradient><linearGradient id="paint12_linear_211_75" x1="126.068" y1="282.692" x2="223.482" y2="421.209" gradientUnits="userSpaceOnUse"><stop stop-color="#8EC752"></stop><stop offset="0.18" stop-color="#83BE4F"></stop><stop offset="1" stop-color="#539943"></stop></linearGradient><linearGradient id="paint13_linear_211_75" x1="143.775" y1="272.902" x2="241.189" y2="411.417" gradientUnits="userSpaceOnUse"><stop stop-color="#8EC752"></stop><stop offset="0.18" stop-color="#83BE4F"></stop><stop offset="1" stop-color="#539943"></stop></linearGradient><linearGradient id="paint14_linear_211_75" x1="161.463" y1="263.074" x2="258.877" y2="401.628" gradientUnits="userSpaceOnUse"><stop stop-color="#8EC752"></stop><stop offset="0.18" stop-color="#83BE4F"></stop><stop offset="1" stop-color="#539943"></stop></linearGradient><linearGradient id="paint15_linear_211_75" x1="179.198" y1="253.284" x2="276.612" y2="391.801" gradientUnits="userSpaceOnUse"><stop stop-color="#8EC752"></stop><stop offset="0.18" stop-color="#83BE4F"></stop><stop offset="1" stop-color="#539943"></stop></linearGradient><linearGradient id="paint16_linear_211_75" x1="62.4718" y1="322.451" x2="159.886" y2="461.006" gradientUnits="userSpaceOnUse"><stop stop-color="#8EC752"></stop><stop offset="0.18" stop-color="#83BE4F"></stop><stop offset="1" stop-color="#539943"></stop></linearGradient><linearGradient id="paint17_linear_211_75" x1="89.5005" y1="307.895" x2="186.915" y2="446.412" gradientUnits="userSpaceOnUse"><stop stop-color="#8EC752"></stop><stop offset="0.18" stop-color="#83BE4F"></stop><stop offset="1" stop-color="#539943"></stop></linearGradient><linearGradient id="paint18_linear_211_75" x1="104.665" y1="298.478" x2="201.372" y2="436.027" gradientUnits="userSpaceOnUse"><stop stop-color="#8EC752"></stop><stop offset="0.18" stop-color="#83BE4F"></stop><stop offset="1" stop-color="#539943"></stop></linearGradient><linearGradient id="paint19_linear_211_75" x1="126.438" y1="287.066" x2="223.851" y2="425.583" gradientUnits="userSpaceOnUse"><stop stop-color="#8EC752"></stop><stop offset="0.18" stop-color="#83BE4F"></stop><stop offset="1" stop-color="#539943"></stop></linearGradient><linearGradient id="paint20_linear_211_75" x1="144.088" y1="277.276" x2="241.54" y2="415.793" gradientUnits="userSpaceOnUse"><stop stop-color="#8EC752"></stop><stop offset="0.18" stop-color="#83BE4F"></stop><stop offset="1" stop-color="#539943"></stop></linearGradient><linearGradient id="paint21_linear_211_75" x1="161.636" y1="267.666" x2="259.087" y2="406.182" gradientUnits="userSpaceOnUse"><stop stop-color="#8EC752"></stop><stop offset="0.18" stop-color="#83BE4F"></stop><stop offset="1" stop-color="#539943"></stop></linearGradient><linearGradient id="paint22_linear_211_75" x1="182.28" y1="256.344" x2="279.694" y2="394.859" gradientUnits="userSpaceOnUse"><stop stop-color="#8EC752"></stop><stop offset="0.18" stop-color="#83BE4F"></stop><stop offset="1" stop-color="#539943"></stop></linearGradient><linearGradient id="paint23_linear_211_75" x1="113.703" y1="255.647" x2="197.703" y2="375.091" gradientUnits="userSpaceOnUse"><stop stop-color="#8EC752"></stop><stop offset="0.18" stop-color="#83BE4F"></stop><stop offset="1" stop-color="#539943"></stop></linearGradient><linearGradient id="paint24_linear_211_75" x1="126.439" y1="249.705" x2="210.475" y2="369.151" gradientUnits="userSpaceOnUse"><stop stop-color="#8EC752"></stop><stop offset="0.18" stop-color="#83BE4F"></stop><stop offset="1" stop-color="#539943"></stop></linearGradient><linearGradient id="paint25_linear_211_75" x1="140.414" y1="242.259" x2="224.416" y2="361.737" gradientUnits="userSpaceOnUse"><stop stop-color="#8EC752"></stop><stop offset="0.18" stop-color="#83BE4F"></stop><stop offset="1" stop-color="#539943"></stop></linearGradient><linearGradient id="paint26_linear_211_75" x1="153.888" y1="235.009" x2="237.921" y2="354.485" gradientUnits="userSpaceOnUse"><stop stop-color="#8EC752"></stop><stop offset="0.18" stop-color="#83BE4F"></stop><stop offset="1" stop-color="#539943"></stop></linearGradient><linearGradient id="paint27_linear_211_75" x1="167.461" y1="227.724" x2="251.464" y2="347.17" gradientUnits="userSpaceOnUse"><stop stop-color="#8EC752"></stop><stop offset="0.18" stop-color="#83BE4F"></stop><stop offset="1" stop-color="#539943"></stop></linearGradient><linearGradient id="paint28_linear_211_75" x1="96.1026" y1="264.748" x2="180.657" y2="381.835" gradientUnits="userSpaceOnUse"><stop stop-color="#8EC752"></stop><stop offset="0.18" stop-color="#83BE4F"></stop><stop offset="1" stop-color="#539943"></stop></linearGradient><linearGradient id="paint29_linear_211_75" x1="76.2" y1="276.942" x2="160.201" y2="396.387" gradientUnits="userSpaceOnUse"><stop stop-color="#8EC752"></stop><stop offset="0.18" stop-color="#83BE4F"></stop><stop offset="1" stop-color="#539943"></stop></linearGradient><linearGradient id="paint30_linear_211_75" x1="55.8441" y1="291.273" x2="140.906" y2="412.258" gradientUnits="userSpaceOnUse"><stop stop-color="#8EC752"></stop><stop offset="0.18" stop-color="#83BE4F"></stop><stop offset="1" stop-color="#539943"></stop></linearGradient><linearGradient id="paint31_linear_211_75" x1="57.2185" y1="291.943" x2="141.221" y2="411.389" gradientUnits="userSpaceOnUse"><stop stop-color="#8EC752"></stop><stop offset="0.18" stop-color="#83BE4F"></stop><stop offset="1" stop-color="#539943"></stop></linearGradient><linearGradient id="paint32_linear_211_75" x1="30.9805" y1="306.401" x2="115.014" y2="425.878" gradientUnits="userSpaceOnUse"><stop stop-color="#8EC752"></stop><stop offset="0.18" stop-color="#83BE4F"></stop><stop offset="1" stop-color="#539943"></stop></linearGradient><linearGradient id="paint33_linear_211_75" x1="15.8533" y1="311.882" x2="99.8872" y2="431.36" gradientUnits="userSpaceOnUse"><stop stop-color="#8EC752"></stop><stop offset="0.18" stop-color="#83BE4F"></stop><stop offset="1" stop-color="#539943"></stop></linearGradient><linearGradient id="paint34_linear_211_75" x1="76.8595" y1="282.092" x2="160.893" y2="401.537" gradientUnits="userSpaceOnUse"><stop stop-color="#8EC752"></stop><stop offset="0.18" stop-color="#83BE4F"></stop><stop offset="1" stop-color="#539943"></stop></linearGradient><linearGradient id="paint35_linear_211_75" x1="92.6636" y1="273.067" x2="176.666" y2="392.512" gradientUnits="userSpaceOnUse"><stop stop-color="#8EC752"></stop><stop offset="0.18" stop-color="#83BE4F"></stop><stop offset="1" stop-color="#539943"></stop></linearGradient><linearGradient id="paint36_linear_211_75" x1="55.1867" y1="298.98" x2="139.188" y2="418.458" gradientUnits="userSpaceOnUse"><stop stop-color="#8EC752"></stop><stop offset="0.18" stop-color="#83BE4F"></stop><stop offset="1" stop-color="#539943"></stop></linearGradient><linearGradient id="paint37_linear_211_75" x1="28.4964" y1="267.704" x2="98.2636" y2="366.658" gradientUnits="userSpaceOnUse"><stop stop-color="#8EC752"></stop><stop offset="0.18" stop-color="#83BE4F"></stop><stop offset="1" stop-color="#539943"></stop></linearGradient><linearGradient id="paint38_linear_211_75" x1="110.534" y1="262.478" x2="194.535" y2="381.923" gradientUnits="userSpaceOnUse"><stop stop-color="#8EC752"></stop><stop offset="0.18" stop-color="#83BE4F"></stop><stop offset="1" stop-color="#539943"></stop></linearGradient><linearGradient id="paint39_linear_211_75" x1="99.4544" y1="276.338" x2="184.548" y2="397.289" gradientUnits="userSpaceOnUse"><stop stop-color="#8EC752"></stop><stop offset="0.18" stop-color="#83BE4F"></stop><stop offset="1" stop-color="#539943"></stop></linearGradient><linearGradient id="paint40_linear_211_75" x1="128.637" y1="256.055" x2="213.73" y2="377.006" gradientUnits="userSpaceOnUse"><stop stop-color="#8EC752"></stop><stop offset="0.18" stop-color="#83BE4F"></stop><stop offset="1" stop-color="#539943"></stop></linearGradient><linearGradient id="paint41_linear_211_75" x1="143.663" y1="245.065" x2="227.665" y2="364.51" gradientUnits="userSpaceOnUse"><stop stop-color="#8EC752"></stop><stop offset="0.18" stop-color="#83BE4F"></stop><stop offset="1" stop-color="#539943"></stop></linearGradient><linearGradient id="paint42_linear_211_75" x1="157.748" y1="237.455" x2="241.749" y2="356.93" gradientUnits="userSpaceOnUse"><stop stop-color="#8EC752"></stop><stop offset="0.18" stop-color="#83BE4F"></stop><stop offset="1" stop-color="#539943"></stop></linearGradient><linearGradient id="paint43_linear_211_75" x1="171.347" y1="230.176" x2="255.381" y2="349.652" gradientUnits="userSpaceOnUse"><stop stop-color="#8EC752"></stop><stop offset="0.18" stop-color="#83BE4F"></stop><stop offset="1" stop-color="#539943"></stop></linearGradient><linearGradient id="paint44_linear_211_75" x1="130.825" y1="255.967" x2="214.827" y2="375.445" gradientUnits="userSpaceOnUse"><stop stop-color="#8EC752"></stop><stop offset="0.18" stop-color="#83BE4F"></stop><stop offset="1" stop-color="#539943"></stop></linearGradient><linearGradient id="paint45_linear_211_75" x1="114.755" y1="264.832" x2="198.789" y2="384.309" gradientUnits="userSpaceOnUse"><stop stop-color="#8EC752"></stop><stop offset="0.18" stop-color="#83BE4F"></stop><stop offset="1" stop-color="#539943"></stop></linearGradient><linearGradient id="paint46_linear_211_75" x1="144.587" y1="248.622" x2="228.589" y2="368.067" gradientUnits="userSpaceOnUse"><stop stop-color="#8EC752"></stop><stop offset="0.18" stop-color="#83BE4F"></stop><stop offset="1" stop-color="#539943"></stop></linearGradient><linearGradient id="paint47_linear_211_75" x1="158.186" y1="241.339" x2="242.219" y2="360.784" gradientUnits="userSpaceOnUse"><stop stop-color="#8EC752"></stop><stop offset="0.18" stop-color="#83BE4F"></stop><stop offset="1" stop-color="#539943"></stop></linearGradient><linearGradient id="paint48_linear_211_75" x1="171.81" y1="234.024" x2="255.812" y2="353.502" gradientUnits="userSpaceOnUse"><stop stop-color="#8EC752"></stop><stop offset="0.18" stop-color="#83BE4F"></stop><stop offset="1" stop-color="#539943"></stop></linearGradient><linearGradient id="paint49_linear_211_75" x1="-0.999031" y1="232.06" x2="54.082" y2="310.372" gradientUnits="userSpaceOnUse"><stop stop-color="#8EC752"></stop><stop offset="0.18" stop-color="#83BE4F"></stop><stop offset="1" stop-color="#539943"></stop></linearGradient><linearGradient id="paint50_linear_211_75" x1="8.6482" y1="60.7251" x2="-5.64105" y2="21.9108" gradientUnits="userSpaceOnUse"><stop offset="0.13" stop-color="#E5F5FD" stop-opacity="0.78"></stop><stop offset="0.3" stop-color="#EFF9FE" stop-opacity="0.6"></stop><stop offset="0.54" stop-color="white" stop-opacity="0.34"></stop><stop offset="0.74" stop-color="white" stop-opacity="0"></stop></linearGradient><linearGradient id="paint51_linear_211_75" x1="259.348" y1="443.429" x2="179.185" y2="225.196" gradientUnits="userSpaceOnUse"><stop offset="0.13" stop-color="#E5F5FD" stop-opacity="0.78"></stop><stop offset="0.3" stop-color="#EFF9FE" stop-opacity="0.6"></stop><stop offset="0.54" stop-color="white" stop-opacity="0.34"></stop><stop offset="0.74" stop-color="white" stop-opacity="0"></stop></linearGradient><linearGradient id="paint52_linear_211_75" x1="222.587" y1="460.39" x2="142.188" y2="243.024" gradientUnits="userSpaceOnUse"><stop offset="0.13" stop-color="#E5F5FD" stop-opacity="0.78"></stop><stop offset="0.3" stop-color="#EFF9FE" stop-opacity="0.6"></stop><stop offset="0.54" stop-color="white" stop-opacity="0.34"></stop><stop offset="0.74" stop-color="white" stop-opacity="0"></stop></linearGradient><linearGradient id="paint53_linear_211_75" x1="235.189" y1="453.276" x2="152.916" y2="236.363" gradientUnits="userSpaceOnUse"><stop offset="0.13" stop-color="#E5F5FD" stop-opacity="0.78"></stop><stop offset="0.3" stop-color="#EFF9FE" stop-opacity="0.6"></stop><stop offset="0.54" stop-color="white" stop-opacity="0.34"></stop><stop offset="0.74" stop-color="white" stop-opacity="0"></stop></linearGradient><linearGradient id="paint54_linear_211_75" x1="264.351" y1="445.513" x2="184.149" y2="227.31" gradientUnits="userSpaceOnUse"><stop offset="0.13" stop-color="#E5F5FD" stop-opacity="0.78"></stop><stop offset="0.3" stop-color="#EFF9FE" stop-opacity="0.6"></stop><stop offset="0.54" stop-color="white" stop-opacity="0.34"></stop><stop offset="0.74" stop-color="white" stop-opacity="0"></stop></linearGradient><linearGradient id="paint55_linear_211_75" x1="372.55" y1="821.697" x2="196.689" y2="442.373" gradientUnits="userSpaceOnUse"><stop offset="0.13" stop-color="#E5F5FD" stop-opacity="0.78"></stop><stop offset="0.3" stop-color="#EFF9FE" stop-opacity="0.6"></stop><stop offset="0.54" stop-color="white" stop-opacity="0.34"></stop><stop offset="0.74" stop-color="white" stop-opacity="0"></stop></linearGradient><linearGradient id="paint56_linear_211_75" x1="168.508" y1="263.222" x2="132.861" y2="141.427" gradientUnits="userSpaceOnUse"><stop offset="0.13" stop-color="#E5F5FD" stop-opacity="0.78"></stop><stop offset="0.3" stop-color="#EFF9FE" stop-opacity="0.6"></stop><stop offset="0.54" stop-color="white" stop-opacity="0.34"></stop><stop offset="0.74" stop-color="white" stop-opacity="0"></stop></linearGradient><linearGradient id="paint57_linear_211_75" x1="275.793" y1="469.147" x2="188.978" y2="243.363" gradientUnits="userSpaceOnUse"><stop offset="0.13" stop-color="#E5F5FD" stop-opacity="0.78"></stop><stop offset="0.3" stop-color="#EFF9FE" stop-opacity="0.6"></stop><stop offset="0.54" stop-color="white" stop-opacity="0.34"></stop><stop offset="0.74" stop-color="white" stop-opacity="0"></stop></linearGradient><linearGradient id="paint58_linear_211_75" x1="245.5" y1="413.752" x2="176.449" y2="215.682" gradientUnits="userSpaceOnUse"><stop offset="0.13" stop-color="#E5F5FD" stop-opacity="0.78"></stop><stop offset="0.3" stop-color="#EFF9FE" stop-opacity="0.6"></stop><stop offset="0.54" stop-color="white" stop-opacity="0.34"></stop><stop offset="0.74" stop-color="white" stop-opacity="0"></stop></linearGradient><linearGradient id="paint59_linear_211_75" x1="231.515" y1="457.463" x2="152.635" y2="243.242" gradientUnits="userSpaceOnUse"><stop offset="0.13" stop-color="#E5F5FD" stop-opacity="0.78"></stop><stop offset="0.3" stop-color="#EFF9FE" stop-opacity="0.6"></stop><stop offset="0.54" stop-color="white" stop-opacity="0.34"></stop><stop offset="0.74" stop-color="white" stop-opacity="0"></stop></linearGradient><linearGradient id="paint60_linear_211_75" x1="428.536" y1="1205.05" x2="160.302" y2="674.749" gradientUnits="userSpaceOnUse"><stop offset="0.13" stop-color="#E5F5FD" stop-opacity="0.78"></stop><stop offset="0.3" stop-color="#EFF9FE" stop-opacity="0.6"></stop><stop offset="0.54" stop-color="white" stop-opacity="0.34"></stop><stop offset="0.74" stop-color="white" stop-opacity="0"></stop></linearGradient><linearGradient id="paint61_linear_211_75" x1="278.235" y1="845.139" x2="104.912" y2="473.995" gradientUnits="userSpaceOnUse"><stop offset="0.13" stop-color="#E5F5FD" stop-opacity="0.78"></stop><stop offset="0.3" stop-color="#EFF9FE" stop-opacity="0.6"></stop><stop offset="0.54" stop-color="white" stop-opacity="0.34"></stop><stop offset="0.74" stop-color="white" stop-opacity="0"></stop></linearGradient><linearGradient id="paint62_linear_211_75" x1="190.928" y1="473.147" x2="111.546" y2="259.389" gradientUnits="userSpaceOnUse"><stop offset="0.13" stop-color="#E5F5FD" stop-opacity="0.78"></stop><stop offset="0.3" stop-color="#EFF9FE" stop-opacity="0.6"></stop><stop offset="0.54" stop-color="white" stop-opacity="0.34"></stop><stop offset="0.74" stop-color="white" stop-opacity="0"></stop></linearGradient><linearGradient id="paint63_linear_211_75" x1="213.493" y1="460.115" x2="136.301" y2="248.501" gradientUnits="userSpaceOnUse"><stop offset="0.13" stop-color="#E5F5FD" stop-opacity="0.78"></stop><stop offset="0.3" stop-color="#EFF9FE" stop-opacity="0.6"></stop><stop offset="0.54" stop-color="white" stop-opacity="0.34"></stop><stop offset="0.74" stop-color="white" stop-opacity="0"></stop></linearGradient><linearGradient id="paint64_linear_211_75" x1="120.304" y1="220.936" x2="94.6893" y2="125.084" gradientUnits="userSpaceOnUse"><stop offset="0.13" stop-color="#E5F5FD" stop-opacity="0.78"></stop><stop offset="0.3" stop-color="#EFF9FE" stop-opacity="0.6"></stop><stop offset="0.54" stop-color="white" stop-opacity="0.34"></stop><stop offset="0.74" stop-color="white" stop-opacity="0"></stop></linearGradient><linearGradient id="paint65_linear_211_75" x1="174.025" y1="483.636" x2="94.9046" y2="269.051" gradientUnits="userSpaceOnUse"><stop offset="0.13" stop-color="#E5F5FD" stop-opacity="0.78"></stop><stop offset="0.3" stop-color="#EFF9FE" stop-opacity="0.6"></stop><stop offset="0.54" stop-color="white" stop-opacity="0.34"></stop><stop offset="0.74" stop-color="white" stop-opacity="0"></stop></linearGradient><linearGradient id="paint66_linear_211_75" x1="167.985" y1="482.441" x2="88.8196" y2="267.408" gradientUnits="userSpaceOnUse"><stop offset="0.13" stop-color="#E5F5FD" stop-opacity="0.78"></stop><stop offset="0.3" stop-color="#EFF9FE" stop-opacity="0.6"></stop><stop offset="0.54" stop-color="white" stop-opacity="0.34"></stop><stop offset="0.74" stop-color="white" stop-opacity="0"></stop></linearGradient><linearGradient id="paint67_linear_211_75" x1="139.857" y1="492.915" x2="60.9774" y2="278.658" gradientUnits="userSpaceOnUse"><stop offset="0.13" stop-color="#E5F5FD" stop-opacity="0.78"></stop><stop offset="0.3" stop-color="#EFF9FE" stop-opacity="0.6"></stop><stop offset="0.54" stop-color="white" stop-opacity="0.34"></stop><stop offset="0.74" stop-color="white" stop-opacity="0"></stop></linearGradient><linearGradient id="paint68_linear_211_75" x1="128.259" y1="442.094" x2="57.9897" y2="253.385" gradientUnits="userSpaceOnUse"><stop offset="0.13" stop-color="#E5F5FD" stop-opacity="0.78"></stop><stop offset="0.3" stop-color="#EFF9FE" stop-opacity="0.6"></stop><stop offset="0.54" stop-color="white" stop-opacity="0.34"></stop><stop offset="0.74" stop-color="white" stop-opacity="0"></stop></linearGradient><linearGradient id="paint69_linear_211_75" x1="80.2892" y1="448.571" x2="12.3036" y2="263.815" gradientUnits="userSpaceOnUse"><stop offset="0.13" stop-color="#E5F5FD" stop-opacity="0.78"></stop><stop offset="0.3" stop-color="#EFF9FE" stop-opacity="0.6"></stop><stop offset="0.54" stop-color="white" stop-opacity="0.34"></stop><stop offset="0.74" stop-color="white" stop-opacity="0"></stop></linearGradient><linearGradient id="paint70_linear_211_75" x1="97.8769" y1="417.248" x2="36.04" y2="243.595" gradientUnits="userSpaceOnUse"><stop offset="0.13" stop-color="#E5F5FD" stop-opacity="0.78"></stop><stop offset="0.3" stop-color="#EFF9FE" stop-opacity="0.6"></stop><stop offset="0.54" stop-color="white" stop-opacity="0.34"></stop><stop offset="0.74" stop-color="white" stop-opacity="0"></stop></linearGradient><clipPath id="clip0_211_75"><rect width="157.949" height="40" fill="white" transform="translate(1 9)"></rect></clipPath></defs></svg>